<?xml version="1.0" encoding="UTF-8" standalone="no"?>
<!-- Created with Inkscape (http://www.inkscape.org/) -->
<svg
   xmlns:svg="http://www.w3.org/2000/svg"
   xmlns="http://www.w3.org/2000/svg"
   version="1.0"
   width="725"
   height="740"
   id="svg2">
  <defs
     id="defs4" />
  <g
     id="layer1">
    <path
       d="M 314.53125,5.1875 C 314.52754,5.1892568 314.53498,5.2170126 314.53125,5.21875 C 314.52743,5.2202976 314.50398,5.2175628 314.5,5.21875 C 314.39404,5.2352292 314.28163,5.2709798 314.1875,5.3125 C 314.13171,5.338823 314.05172,5.371811 314,5.40625 C 313.93192,5.4538945 313.84241,5.5330977 313.78125,5.59375 C 313.01973,6.3787529 312.78125,8.1498407 312.78125,9.4375 C 312.87343,11.342554 318.78125,17.75 318.78125,17.75 C 318.78126,17.75 329.87024,19.138246 331.71875,20.0625 C 333.56727,20.986753 335.875,26.0625 335.875,26.0625 L 335.4375,27.125 L 330.28125,30.1875 L 323.75,29.84375 L 311.96875,26.25 C 311.96876,26.249998 305.42398,25.613431 302.15625,26.59375 C 298.88852,27.574069 292.37229,33.786657 291.71875,35.09375 C 291.70709,35.113463 291.66986,35.13696 291.65625,35.15625 C 291.65379,35.159961 291.65834,35.18398 291.65625,35.1875 C 291.63327,35.222413 291.58835,35.281126 291.5625,35.3125 C 291.43065,35.465843 291.25825,35.589364 291.09375,35.65625 C 291.0513,35.672435 290.98141,35.707012 290.9375,35.71875 C 290.17587,35.906684 289.21003,35.461872 289.09375,35.40625 C 289.09376,35.406248 288.75887,32.801685 287.125,30.1875 C 285.49114,27.573314 284.18209,26.929389 282.875,24.96875 C 282.22289,23.990585 282.30477,23.291995 282.0625,22.71875 C 282.05419,22.700065 282.04035,22.674725 282.03125,22.65625 C 282.00859,22.612296 281.96547,22.54326 281.9375,22.5 C 281.62268,22.03399 280.93554,21.58268 279.28125,21.03125 C 275.3753,19.729262 265.95923,20.390493 263.625,22.65625 C 261.33758,24.94366 263.625,31.15625 263.625,31.15625 C 263.62499,31.156248 264.58023,35.076773 261.3125,34.75 C 258.04476,34.423224 256.4375,31.8125 256.4375,31.8125 L 251.1875,33.125 L 249.21875,34.4375 C 249.21874,34.437498 246.61689,29.860727 244.65625,30.1875 C 242.69561,30.514272 239.4375,34.4375 239.4375,34.4375 C 239.43751,34.437498 234.86419,38.66782 232.25,37.6875 C 229.63583,36.707179 224.08564,33.775842 222.125,32.46875 C 220.16437,31.161657 206.4375,22.34375 206.4375,22.34375 C 206.4375,22.343751 203.14273,29.53125 199.875,29.53125 C 196.60728,29.531248 193.69366,30.184796 191.40625,29.53125 C 189.11884,28.877702 184.84375,26.90625 184.84375,26.90625 C 184.84375,26.906249 182.57137,22.341047 180.9375,21.6875 C 179.30364,21.033953 164.28125,19.0625 164.28125,19.0625 C 164.28125,19.062499 164.93209,26.587588 163.625,28.875 C 162.31791,31.162409 161.34375,33.4375 161.34375,33.4375 L 153.5,33.4375 C 153.50001,33.437499 142.17374,29.687505 140.5,30.15625 C 140.47774,30.163258 140.42944,30.178055 140.40625,30.1875 C 139.09915,30.841045 136.15701,34.417819 132.5625,33.4375 C 128.96799,32.45718 125.40085,36.079477 124.09375,36.40625 C 124.08316,36.405794 124.04263,36.406231 124.03125,36.40625 C 123.77975,36.496996 123.07464,36.857897 122.0625,37.40625 L 122.125,36.71875 L 105.125,38.03125 L 86.8125,40.96875 L 76.6875,46.53125 L 69.84375,53.71875 L 68.84375,55.34375 L 55.125,49.46875 L 48.28125,47.8125 L 36.84375,48.8125 L 29,44.21875 L 21.46875,44.875 L 8.40625,47.8125 L 2.84375,52.0625 L 1.875,56.96875 L 5.125,70.375 L 11,82.46875 L 23.75,89.65625 C 23.75,89.65625 28.323316,88.98843 30.9375,89.96875 C 33.551684,90.949073 41.71875,96.5 41.71875,96.5 L 51.21875,105.65625 L 52.84375,111.53125 L 57.75,115.78125 L 55.125,129.1875 L 56.4375,136.375 L 64.9375,147.5 L 67.5625,156.3125 L 71.15625,163.8125 L 74.09375,169.375 L 83.21875,161.53125 L 84.875,160.21875 L 77.34375,172.96875 L 70.8125,179.1875 L 69.5,182.46875 L 66.5625,186.0625 L 65.25,192.90625 L 62.96875,194.53125 L 61.34375,194.53125 L 59.375,199.78125 L 60.03125,205 L 55.125,209.90625 L 49.25,215.78125 L 45.65625,217.75 L 41.71875,218.0625 L 41.71875,227.5625 L 25.40625,236.6875 C 25.406251,236.6875 19.525843,237.35456 18.21875,239.96875 C 16.911658,242.58294 19.1875,245.1875 19.1875,245.1875 L 23.75,250.4375 L 29.96875,254.03125 L 31.28125,256.3125 L 31.6875,255.71875 L 31.9375,256.625 C 31.937501,256.62502 35.838343,262.51622 34.53125,266.4375 C 33.224158,270.35877 28.65625,280.8125 28.65625,280.8125 C 28.651722,280.8174 28.630476,280.83909 28.625,280.84375 C 28.328284,281.06587 26.751474,282.3809 27.34375,284.75 C 27.997295,287.36419 32.567908,293.22956 33.875,295.84375 C 35.182092,298.45793 41.09375,306.3125 41.09375,306.3125 L 52.375,309.4375 L 52.84375,312.1875 L 49.5625,318.71875 L 50.875,326.5625 L 57.40625,333.09375 C 57.406249,333.09378 59.364185,335.72146 56.75,336.375 C 54.135817,337.02857 52.176685,336.38041 49.5625,337.6875 C 46.948315,338.99462 43.707934,340.28666 41.09375,341.59375 C 39.745812,342.26772 38.719565,342.61265 38.15625,343.21875 C 37.647872,343.7869 37.501044,344.63022 37.8125,346.1875 C 38.466047,349.45526 45,350.75 45,350.75 C 44.999999,350.75002 46.294769,357.28395 49.5625,357.9375 C 52.830231,358.59105 89.4375,371.65625 89.4375,371.65625 C 89.437498,371.65627 91.388523,376.875 94.65625,376.875 C 97.92399,376.875 111,381.46875 111,381.46875 C 111,381.46874 129.65525,380.34396 137.15625,378.84375 C 146.95945,376.88308 176.375,374.28125 176.375,374.28125 L 192.6875,378.84375 L 192.6875,378.375 C 193.6235,378.99901 194.70437,379.71958 196.71875,381.0625 C 199.47189,382.89794 209.11197,389.76822 211.40625,392.0625 C 213.70052,394.35679 216.44583,396.6448 218.28125,397.5625 C 220.11667,398.48022 220.58072,399.88175 222.875,403.09375 C 225.16928,406.30575 226.53957,408.5922 228.375,409.96875 C 230.21042,411.34533 232.95729,413.16458 233.875,415 C 234.79271,416.83544 236.6349,421.44583 237.09375,423.28125 C 237.55261,425.11668 241.67447,428.30938 243.96875,431.0625 C 245.47437,432.86926 245.8017,433.71315 245.84375,434.0625 C 245.84387,434.07909 245.8435,434.11482 245.84375,434.125 C 245.84369,434.13131 245.84402,434.15042 245.84375,434.15625 C 245.84388,434.16277 245.84405,434.18503 245.84375,434.1875 C 245.84385,434.19087 245.84373,434.21598 245.84375,434.21875 C 245.83813,434.22428 245.81823,434.24455 245.8125,434.25 C 245.81248,434.25296 245.81224,434.27778 245.8125,434.28125 C 245.8125,434.28126 245.35208,439.77967 247.1875,441.15625 C 247.57466,441.44663 247.91423,441.63462 248.1875,441.71875 C 248.2773,441.74475 248.39026,441.77211 248.46875,441.78125 C 248.50338,441.78276 248.56557,441.78086 248.59375,441.78125 C 248.73496,441.78026 248.88693,441.73629 249,441.6875 C 249.01671,441.67983 249.04732,441.66409 249.0625,441.65625 C 249.0734,441.6511 249.11457,441.63029 249.125,441.625 C 249.13047,441.61945 249.15078,441.59935 249.15625,441.59375 C 249.16174,441.58822 249.18203,441.56807 249.1875,441.5625 C 249.24137,441.51555 249.30226,441.45229 249.34375,441.40625 C 249.34977,441.39884 249.37003,441.38209 249.375,441.375 C 249.39484,441.34106 249.4235,441.27987 249.4375,441.25 C 249.44541,441.23225 249.46166,441.20136 249.46875,441.1875 C 249.46861,441.18042 249.46866,441.15795 249.46875,441.15625 C 249.46875,441.15626 252.68594,442.10209 254.0625,443.9375 C 255.43907,445.77294 259.11355,450.35209 260.03125,452.1875 C 260.94896,454.02294 259.10208,455.40469 260.9375,456.78125 C 261.2673,457.02861 261.53479,457.15752 261.71875,457.21875 C 261.72386,457.2203 261.74214,457.21606 261.75,457.21875 C 261.76787,457.22494 261.80045,457.2466 261.8125,457.25 C 261.82346,457.25004 261.86422,457.25026 261.875,457.25 C 261.88144,457.25029 261.89998,457.25 261.90625,457.25 C 261.90931,457.24987 261.9312,457.2499 261.9375,457.25 C 261.94859,457.25027 261.98906,457.25 262,457.25 C 262.0109,457.2448 262.0519,457.22452 262.0625,457.21875 C 262.06516,457.21606 262.09103,457.19069 262.09375,457.1875 C 262.10475,457.18259 262.14546,457.16168 262.15625,457.15625 C 262.15888,457.15292 262.18483,457.12886 262.1875,457.125 C 262.19549,457.11185 262.21127,457.07397 262.21875,457.0625 C 262.49682,456.65719 262.67446,455.72073 263.71875,454.9375 C 265.55418,453.56094 267.82081,450.34217 269.65625,451.71875 C 271.49167,453.09533 271.03125,454.47706 271.03125,456.3125 C 271.03125,458.14793 271.5198,462.74688 272.4375,465.5 C 273.35521,468.25314 274.25001,471.46876 274.25,471.46875 L 276.09375,470.0625 C 276.09375,470.06251 277.93438,466.85366 280.6875,467.3125 C 280.88108,467.34476 281.0784,467.41285 281.25,467.5 C 283.49374,468.68434 283.90625,474.21875 283.90625,474.21875 C 283.90625,474.21876 289.86198,474.66613 292.15625,475.125 C 294.45053,475.58386 299.94584,474.6776 301.78125,474.21875 C 303.61668,473.7599 313.26822,469.62501 315.5625,469.625 C 317.85678,469.62501 321.96874,474.21875 321.96875,474.21875 C 321.96875,474.21876 323.36198,474.65624 325.65625,474.65625 C 327.95053,474.65626 330.23697,471.90781 332.53125,470.53125 C 334.82553,469.15469 342.15626,467.78126 342.15625,467.78125 C 342.15625,467.78126 351.3505,459.07554 354.5625,456.78125 C 356.47432,455.41567 357.42826,455.51056 357.875,455.8125 C 357.95826,455.87321 358.04386,455.96628 358.09375,456.03125 C 358.13002,456.08124 358.16707,456.14631 358.1875,456.1875 C 358.19081,456.19021 358.21576,456.21576 358.21875,456.21875 L 358.75,454.71875 C 358.9641,454.82531 359.15625,454.9375 359.15625,454.9375 C 359.15626,454.93752 366.47708,457.69582 368.3125,459.53125 C 370.14792,461.36669 376.12343,474.66457 377.5,476.5 C 378.87656,478.33543 385.3125,483.37186 385.3125,486.125 C 385.3125,488.87813 382.53957,490.72708 384.375,492.5625 C 386.21041,494.39795 386.6875,498.53125 386.6875,498.53125 C 386.68751,498.53125 384.375,509.07083 384.375,510.90625 C 384.37499,512.7417 386.20572,516.41614 388.5,516.875 C 390.79427,517.33383 394.9375,515.5 394.9375,515.5 L 399.53125,508.625 C 399.53125,508.625 401.59962,508.47792 405.09375,508.53125 C 410.25251,508.60999 413.28125,511.375 413.28125,511.375 L 416.03125,524.6875 C 416.03126,524.68748 421.39486,530.47562 423.75,530.65625 C 423.77775,530.65785 423.81686,530.65625 423.84375,530.65625 C 426.13802,530.65621 433.03125,532.03125 433.03125,532.03125 C 433.03126,532.03125 439.91301,531.11197 443.125,533.40625 C 446.33701,535.70051 448.625,541.65625 448.625,541.65625 C 448.625,541.65623 453.22708,544.39793 455.0625,542.5625 C 456.89792,540.72705 475.68437,522.84375 478.4375,522.84375 C 481.19064,522.8437 484.87187,524.22032 487.625,522.84375 C 490.37815,521.46713 494.50833,520.55417 496.34375,518.71875 C 498.17919,516.88328 505.96875,511.375 505.96875,511.375 L 508.71875,510.90625 L 508.65625,510.65625 C 508.96745,510.71732 509.14486,510.72016 509.21875,510.71875 C 509.22463,510.71847 509.24366,510.71868 509.25,510.71875 C 509.24997,510.71878 528.72415,515.91898 531.96875,519.8125 C 535.21336,523.706 537.15625,525.65432 537.15625,528.25 C 537.15628,530.84565 534.56983,542.53665 535.21875,545.78125 C 535.86765,549.02584 540.40625,554.84375 540.40625,554.84375 L 531.96875,564.59375 L 531.96875,570.4375 C 531.66787,570.5545 526.88804,572.48179 530.03125,575.625 C 533.27588,578.86957 537.8125,583.40625 537.8125,583.40625 L 547.53125,584.0625 C 547.53125,584.06251 563.09915,596.38233 566.34375,597.03125 C 569.58835,597.68012 578.69483,602.23148 579.34375,606.125 C 579.99268,610.01851 577.375,615.1929 577.375,618.4375 C 577.37503,621.68211 574.78858,624.93557 575.4375,627.53125 C 576.0864,630.12692 581.9375,641.8125 581.9375,641.8125 C 581.93748,641.81248 585.81983,643.09182 586.46875,645.6875 C 587.11768,648.28319 586.46875,650.90625 586.46875,650.90625 C 586.46876,650.90621 587.12307,656.08449 589.71875,658.03125 C 592.31441,659.97797 598.14892,663.87307 597.5,666.46875 C 596.85111,669.06443 600.75,677.5 600.75,677.5 C 600.75,677.49996 607.23534,685.93557 605.9375,688.53125 C 604.63968,691.12691 602.6875,695.65625 602.6875,695.65625 L 609.1875,715.78125 L 612.4375,737.84375 C 612.43752,737.84372 622.8179,738.49267 626.0625,737.84375 C 629.30712,737.1948 642.28125,728.125 642.28125,728.125 C 642.28125,728.125 652.67631,720.96142 657.21875,720.3125 C 661.76117,719.66358 670.82523,720.34182 674.71875,722.9375 C 678.36893,725.37093 679.74941,726.07545 679.90625,726.15625 C 679.90627,726.1562 684.46682,724.88233 687.0625,725.53125 C 689.65819,726.18013 694.84182,730.05517 697.4375,729.40625 C 699.79489,728.81688 700.56858,727.67057 700.6875,727.46875 L 700.03125,717.71875 C 700.03127,717.71872 692.25733,707.34568 692.90625,704.75 C 693.55519,702.15428 701.34375,680.09568 701.34375,677.5 C 701.34376,674.90428 697.4375,672.96875 697.4375,672.96875 L 702.625,667.125 L 682.5,641.8125 L 674.0625,635.96875 L 677.96875,631.4375 C 677.96872,631.43745 685.74807,633.36767 688.34375,632.71875 C 690.93943,632.06983 694.1875,632.71875 694.1875,632.71875 L 700.6875,637.25 L 711.0625,631.4375 L 716.25,623.625 L 720.15625,622.34375 L 717.5625,619.09375 L 710.40625,617.15625 L 707.8125,611.96875 C 707.81251,611.96875 702.61767,610.00193 701.96875,607.40625 C 701.31983,604.81055 698.09568,592.47801 695.5,590.53125 C 692.90432,588.58444 685.09375,583.40625 685.09375,583.40625 C 685.09372,583.4062 679.28318,584.06443 676.6875,581.46875 C 674.09181,578.87305 666.94483,571.08102 667.59375,567.1875 C 668.24268,563.29397 674.0625,556.8125 674.0625,556.8125 C 674.06251,556.81246 683.81057,552.89892 686.40625,552.25 C 689.00195,551.60108 693.55324,547.06443 695.5,544.46875 C 697.44676,541.87307 702.625,541.875 702.625,541.875 L 702.625,536.6875 L 701.34375,534.75 L 710.40625,526.3125 L 704.5625,515.90625 L 701.34375,513.3125 C 701.34376,513.31248 683.81443,520.44676 681.21875,518.5 C 678.62308,516.55323 676.03125,512.03125 676.03125,512.03125 L 677.3125,504.875 L 671.46875,506.84375 L 665.65625,498.40625 L 616.96875,514.625 C 616.96873,514.62497 610.47068,502.29977 607.875,498.40625 C 605.27932,494.51275 591.66551,483.47068 589.71875,480.875 C 587.77197,478.27932 581.9375,464 581.9375,464 C 581.93748,464 576.72994,454.90625 572.1875,454.90625 C 567.64507,454.90627 559.21875,453.625 559.21875,453.625 L 542.34375,445.1875 L 532.84375,429.375 C 532.22452,426.00151 530.42878,416.79942 528.9375,414.5625 C 527.10207,411.80938 524.78595,408.59689 520.65625,405.84375 C 516.52654,403.09064 504.14949,399.875 500.9375,399.875 C 497.72552,399.87502 489.01303,402.16772 486.71875,401.25 C 484.42447,400.33231 482.11511,399.39792 481.65625,397.5625 C 481.35049,396.33942 481.63712,394.10975 481.875,392.75 C 482.71519,391.75278 486.09522,387.83066 488.09375,387.03125 C 490.38804,386.11356 512.85051,383.34375 516.0625,383.34375 C 519.2745,383.34376 531.22707,387.48853 533.0625,388.40625 C 533.07317,388.41191 533.10879,388.42932 533.125,388.4375 C 534.81352,389.48269 534.90644,395.74398 536.125,396.59375 C 536.13572,396.59926 536.1767,396.61992 536.1875,396.625 C 536.19303,396.63074 536.21321,396.65057 536.21875,396.65625 C 536.22199,396.656 536.24723,396.65633 536.25,396.65625 C 537.62658,397.11511 540.40625,395.28125 540.40625,395.28125 C 540.40627,395.28127 540.39322,389.32396 542.6875,388.40625 C 544.98176,387.48853 549.5625,386.5625 549.5625,386.5625 L 557.84375,371.875 C 557.84376,371.87502 555.07239,368.66928 555.53125,366.375 C 555.99009,364.08073 555.09062,361.32396 557.84375,360.40625 C 560.5969,359.48855 565.63333,359.95053 567.46875,357.65625 C 567.49743,357.62041 567.53559,357.57018 567.5625,357.53125 C 569.22354,355.04143 567.46875,346.65625 567.46875,346.65625 L 573.90625,331.03125 C 573.90627,331.03126 573.87656,326.45053 572.5,324.15625 C 571.12342,321.86198 567.9375,321.86667 567.9375,320.03125 C 567.93749,318.19584 567.9375,315.90625 567.9375,315.90625 C 567.93749,315.90626 570.22189,312.69064 567.46875,309.9375 C 564.71561,307.18437 559.22188,302.58542 556.46875,300.75 C 553.71558,298.91459 533.97032,296.61824 532.59375,293.40625 C 531.21719,290.19426 531.21875,287 531.21875,287 C 531.21877,287 509.66095,278.26303 505.53125,275.96875 C 501.40153,273.67448 495.4375,268.1875 495.4375,268.1875 L 485.78125,267.25 C 485.78126,267.25001 482.10835,266.81563 478.4375,264.0625 C 474.76666,261.30936 449.07396,240.19377 448.15625,234.6875 C 447.23854,229.18122 450.46718,223.67918 451.84375,221.84375 C 453.22033,220.00833 454.11667,218.61667 452.28125,216.78125 C 450.44583,214.94582 443.56563,214.94064 440.8125,212.1875 C 438.05936,209.43437 438.08385,208.05574 437.625,204.84375 C 437.47713,203.80864 437.45357,203.38225 437.40625,203.15625 C 437.40631,203.15351 437.40604,203.12804 437.40625,203.125 C 437.40523,203.12241 437.40893,203.09919 437.40625,203.09375 C 437.39966,203.08086 437.37784,203.06827 437.375,203.0625 C 437.36596,203.04521 437.35093,203.01422 437.34375,203 C 437.17033,202.74593 436.65049,202.60421 434.84375,200.28125 C 434.45185,199.77737 434.02755,199.116 433.59375,198.34375 C 433.99345,196.35803 434.89656,192.00748 435.25,190.59375 C 435.71213,188.74525 443.5625,177.625 443.5625,177.625 C 443.56251,177.62501 467.59562,161.92425 469.90625,161 C 472.2169,160.07575 481.90625,153.15625 481.90625,153.15625 C 481.90624,153.15625 492.07202,141.60803 488.375,136.0625 C 484.67799,130.51699 478.21875,125.875 478.21875,125.875 C 478.21875,125.875 462.50476,119.40438 460.65625,117.09375 C 458.80773,114.78312 458.33526,111.54739 455.5625,108.3125 C 452.78973,105.07761 448.65625,106.46875 448.65625,106.46875 L 444.03125,97.21875 L 445.875,93.53125 C 445.87502,93.531249 448.19412,93.06064 448.65625,90.75 C 449.11839,88.439372 448.1875,85.6875 448.1875,85.6875 C 448.18416,85.5934 448.13251,84.878694 447.75,84.34375 C 447.70521,84.28388 447.64799,84.210716 447.59375,84.15625 C 447.00629,83.595326 445.83703,83.385281 443.5625,84.75 C 438.94125,87.522762 435.25,92.59375 435.25,92.59375 C 435.25,92.593749 429.71027,97.24338 426.9375,96.78125 C 424.16475,96.319129 422.29263,93.53601 420.90625,91.6875 C 419.51986,89.838989 419.07202,86.591885 415.375,84.28125 C 411.67799,81.970616 411.21689,82.432742 408.90625,84.28125 C 406.59563,86.129759 405.67901,89.375 402.90625,89.375 C 400.30678,89.374999 399.30158,88.151062 399.1875,88 C 399.1875,87.999995 396.41288,83.841885 396.875,81.53125 C 397.02081,80.80223 397.18583,80.346764 397.21875,80.09375 C 397.22041,80.077209 397.21838,80.04602 397.21875,80.03125 C 397.21861,80.028826 397.21866,80.006621 397.21875,80 C 397.21889,79.996411 397.21874,79.97163 397.21875,79.96875 C 397.21588,79.965948 397.191,79.940678 397.1875,79.9375 C 397.18757,79.934675 397.18727,79.909706 397.1875,79.90625 C 397.18203,79.900747 397.16192,79.880389 397.15625,79.875 C 397.15183,79.870524 397.13336,79.851926 397.125,79.84375 C 397.11974,79.838179 397.09924,79.817991 397.09375,79.8125 C 396.82098,79.668274 396.08004,79.652332 394.5625,79.21875 C 391.32762,78.294498 390.40439,79.654384 388.09375,77.34375 C 385.78313,75.033112 387.62975,76.440393 385.78125,72.28125 C 384.46707,69.324357 384.08653,67.059109 383.3125,66.5 C 383.30945,66.496639 383.28402,66.471551 383.28125,66.46875 C 383.24993,66.450957 383.18855,66.420259 383.15625,66.40625 C 383.15351,66.406297 383.128,66.405912 383.125,66.40625 C 383.10269,66.399636 383.05744,66.381883 383.03125,66.375 C 383.01543,66.372838 382.98507,66.376075 382.96875,66.375 C 382.93561,66.373949 382.87884,66.371573 382.84375,66.375 C 382.74595,66.387558 382.61149,66.420241 382.5,66.46875 C 382.37709,66.52538 382.23117,66.615685 382.09375,66.71875 C 380.24523,68.105129 378.40625,69.508488 378.40625,72.28125 C 378.40625,75.054009 378.875,80.125 378.875,80.125 C 378.875,80.124999 375.16101,76.90625 373.3125,76.90625 C 371.464,76.906248 367.78125,77.34375 367.78125,77.34375 C 367.78126,77.343747 365.47537,75.973508 365.9375,74.125 C 366.36531,72.413688 364.80796,66.326283 366.40625,63.96875 C 366.52968,63.792084 366.68128,63.629973 366.84375,63.5 C 369.15438,61.651488 372.40149,61.1875 374.25,61.1875 C 376.09851,61.187499 377.02835,62.573881 381.1875,61.1875 C 385.34664,59.801118 388.09375,57.5 388.09375,57.5 C 388.09376,57.499998 396.80913,59.052863 398.46875,56.71875 C 398.59026,56.538968 398.68626,56.321203 398.71875,56.09375 C 399.18088,52.858861 401.02939,50.098507 398.71875,48.25 C 397.02188,46.8925 396.80788,45.528913 395.90625,44.90625 C 395.58439,44.693135 395.15821,44.5625 394.5625,44.5625 C 392.25187,44.562499 386.25,43.625 386.25,43.625 C 386.25002,43.625 382.09664,36.230131 377.9375,34.84375 C 373.77835,33.457368 372.85326,37.149627 369.15625,36.6875 C 365.45922,36.225373 353.90625,35.3125 353.90625,35.3125 L 355.28125,32.53125 C 355.28126,32.531249 363.60037,29.297388 364.0625,26.0625 C 364.52462,22.827609 356.6875,10.34375 356.6875,10.34375 C 356.6876,10.336691 356.68784,10.314287 356.6875,10.3125 C 356.68646,10.309176 356.6888,10.284977 356.6875,10.28125 C 356.68287,10.268644 356.65996,10.230996 356.65625,10.21875 C 356.65632,10.216031 356.65605,10.190626 356.65625,10.1875 C 356.6564,10.183903 356.65624,10.15913 356.65625,10.15625 C 356.65339,10.153461 356.62852,10.128181 356.625,10.125 C 356.61251,10.094181 356.58308,10.034836 356.5625,10 C 356.53584,9.9626835 356.48145,9.9129324 356.4375,9.875 C 356.43008,9.8692451 356.41366,9.8487709 356.40625,9.84375 C 356.40325,9.8403699 356.37776,9.8153166 356.375,9.8125 C 356.32803,9.7877683 356.2409,9.7638628 356.1875,9.75 C 356.1767,9.7500715 356.13597,9.7497884 356.125,9.75 C 356.11428,9.7500107 356.0734,9.7498372 356.0625,9.75 C 355.98945,9.7463028 355.87747,9.7407448 355.78125,9.75 C 355.77852,9.7499543 355.75306,9.7501242 355.75,9.75 C 355.42186,9.8101017 354.97071,9.9863243 354.375,10.34375 C 352.06437,11.730131 348.375,15.4375 348.375,15.4375 C 348.37501,15.4375 346.52938,17.294497 344.21875,18.21875 C 341.9081,19.143002 340.03415,17.292631 335.875,15.90625 C 331.71586,14.519869 329.87975,13.131623 328.03125,13.59375 C 327.09391,13.828085 326.7254,14.533893 326.3125,14.875 C 326.30707,14.880559 326.2867,14.900741 326.28125,14.90625 C 326.27816,14.909582 326.25273,14.934726 326.25,14.9375 C 326.23914,14.942956 326.19842,14.963506 326.1875,14.96875 C 326.17396,14.976035 326.13884,14.993639 326.125,15 C 326.11421,15.005648 326.07338,15.025852 326.0625,15.03125 C 326.05944,15.031014 326.03402,15.031312 326.03125,15.03125 C 326.00406,15.03744 325.94021,15.056052 325.90625,15.0625 C 325.90239,15.062781 325.88096,15.062592 325.875,15.0625 C 325.53679,15.058037 325.08388,14.802625 324.34375,14.0625 C 322.03311,11.751866 318.78125,7.125 318.78125,7.125 C 318.78126,7.1250001 316.94226,5.743377 315.09375,5.28125 C 314.91775,5.2372484 314.7453,5.1830257 314.59375,5.1875 C 314.58965,5.1882918 314.5664,5.186216 314.5625,5.1875 C 314.55873,5.1891056 314.53496,5.1857432 314.53125,5.1875 z M 349.21875,65.59375 C 349.28135,65.587385 349.34356,65.59569 349.40625,65.59375 C 350.61821,65.556249 351.87912,65.709708 352.75,66 C 354.73393,66.66131 355.2487,67.328572 358.6875,69.3125 C 362.12632,71.296431 361.2159,72.501547 362.40625,74.75 C 363.59661,76.998455 362.79356,78.694107 362,80.28125 C 361.20642,81.868395 357.90755,83.064704 354.46875,83.59375 C 351.0389,84.12142 348.92327,80.288378 347.46875,78.5625 C 347.46864,78.559019 347.4688,78.534115 347.46875,78.53125 C 347.46877,78.526233 347.46906,78.505646 347.46875,78.5 C 347.46874,78.496766 347.46861,78.47264 347.46875,78.46875 C 347.46936,78.455201 347.46956,78.417468 347.46875,78.40625 C 347.25302,77.404274 345.00557,72.526535 344.40625,71.6875 C 344.39328,71.667882 344.35922,71.619443 344.34375,71.59375 C 344.33789,71.581643 344.32044,71.547432 344.3125,71.53125 C 344.3028,71.505791 344.2893,71.46466 344.28125,71.4375 C 343.97085,70.292182 345.03333,67.738396 345.875,66.65625 C 346.36913,66.060158 347.64661,65.711087 349.03125,65.625 C 349.09316,65.621151 349.15615,65.600115 349.21875,65.59375 z M 398.25,91.1875 C 398.2769,91.183165 398.31679,91.18896 398.34375,91.1875 C 398.8469,91.160241 399.23622,91.25348 399.53125,91.375 C 400.38869,91.746891 400.58787,92.647561 401.40625,93.375 C 402.59661,94.433097 402.60761,94.850355 404.0625,96.4375 C 404.51005,96.925733 404.74871,97.304245 404.84375,97.59375 C 404.86096,97.650656 404.86786,97.729863 404.875,97.78125 C 404.87873,97.814944 404.87518,97.874668 404.875,97.90625 C 404.87418,97.929567 404.87778,97.977727 404.875,98 C 404.87273,98.014631 404.87805,98.048284 404.875,98.0625 C 404.87157,98.07652 404.8479,98.111352 404.84375,98.125 C 404.81907,98.199101 404.79101,98.277672 404.75,98.34375 C 404.62571,98.534167 404.44269,98.720508 404.3125,98.9375 C 403.91572,99.59881 403.9331,100.26892 402.875,101.0625 C 401.8169,101.85607 401.26958,101.99274 400.34375,102.125 C 399.41792,102.25726 399.17429,101.60168 396,99.75 C 395.99275,99.749826 395.96991,99.749707 395.96875,99.75 C 395.96605,99.749936 395.94032,99.750275 395.9375,99.75 C 395.93594,99.748159 395.91333,99.725737 395.90625,99.71875 C 395.49832,99.546096 394.30778,98.062924 393.46875,97.34375 C 392.54292,96.550178 392.55743,94.829886 393.21875,93.375 C 393.88006,91.920118 395.33078,91.678035 397.84375,91.28125 C 397.92964,91.267688 398.01414,91.232735 398.09375,91.21875 C 398.0965,91.21876 398.1218,91.21866 398.125,91.21875 C 398.16339,91.214508 398.21389,91.193765 398.25,91.1875 z M 476.9375,191.5 C 474.64129,191.83916 472.69274,194.41926 471.09375,195.21875 C 469.25834,196.13647 467.4375,197.96875 467.4375,197.96875 C 467.4375,197.96874 464.6875,198.89322 464.6875,201.1875 C 464.68751,202.90148 465.98387,204.37536 466.25,204.8125 C 466.253,204.81814 466.27844,204.83812 466.28125,204.84375 C 466.28356,204.84873 466.27976,204.87129 466.28125,204.875 C 466.28125,204.87787 466.28132,204.90266 466.28125,204.90625 C 466.2798,204.90801 466.25878,204.92907 466.25,204.9375 C 466.24294,204.93762 466.22033,204.93781 466.21875,204.9375 C 466.19312,204.92967 466.13719,204.89379 466.09375,204.875 C 466.0867,204.87178 466.06917,204.87825 466.0625,204.875 C 465.878,205.17366 462.9681,209.98916 466.96875,212.65625 C 471.09846,215.40937 473.875,216.34375 473.875,216.34375 L 478.90625,209.4375 L 483.96875,204.84375 C 484.15542,204.73262 487.12181,202.89989 485.34375,199.34375 C 483.50831,195.67291 480.75313,192.02135 478,191.5625 C 477.74189,191.51948 477.46879,191.48341 477.21875,191.5 C 477.21167,191.50047 477.19422,191.49991 477.1875,191.5 C 477.17459,191.49967 477.13748,191.50064 477.125,191.5 C 477.11872,191.49978 477.10018,191.49999 477.09375,191.5 C 477.08707,191.50035 477.06953,191.49918 477.0625,191.5 C 477.02589,191.50425 476.97395,191.49462 476.9375,191.5 z M 332.1875,447.75 C 332.23931,447.7427 332.29084,447.75236 332.34375,447.75 C 333.61043,447.69343 335.17204,449.02246 336.09375,449.8125 C 337.26186,450.81373 337.92688,453.32127 338.09375,454.65625 C 338.26063,455.99123 338.41749,457.65438 337.75,459.15625 C 337.08251,460.6581 335.92811,460.8325 335.09375,461.5 C 335.08306,461.5053 335.04228,461.5261 335.03125,461.53125 C 334.99918,461.54937 334.93718,461.57893 334.90625,461.59375 C 333.80809,462.08569 330.43983,461.59473 328.5625,460.8125 C 326.56003,459.97814 327.23999,458.13934 326.90625,454.96875 L 327.40625,453.15625 C 327.40625,453.15625 330.07127,449.29311 331.40625,448.125 C 331.52065,448.0249 331.65603,447.93354 331.78125,447.875 C 331.90722,447.81946 332.05279,447.76897 332.1875,447.75 z "
       style="fill:#000000;fill-opacity:1;fill-rule:evenodd;stroke:#000000;stroke-width:3;stroke-linecap:butt;stroke-linejoin:miter;stroke-miterlimit:4;stroke-dasharray:none;stroke-opacity:1"
       id="path1495" />
    <path
       d="M 31.275272,256.30405 L 38.137508,246.50086 L 45.653289,244.21345 L 51.861978,237.35121 L 62.972263,236.69766 L 66.239995,234.08348 L 70.488045,233.42993 L 73.429003,236.37089 L 75.389641,236.69766 L 78.330599,236.69766 L 80.291238,234.41025 L 83.558969,232.77639 L 92.38184,236.69766 L 100.2244,237.67798 L 101.85826,238.33153 L 105.77954,239.63862 L 108.39372,236.37089 L 118.19692,233.75671 L 119.50401,241.59926 L 123.75206,243.5599 L 129.63398,244.21345 C 129.63398,244.21345 133.88203,241.59926 135.18912,241.59926 C 136.49621,241.59926 139.43717,242.25281 139.43717,242.25281 L 142.05135,242.90635 L 147.93327,242.25281 L 154.14196,240.94571 L 159.6971,238.6583 L 161.00419,234.73703 L 155.44905,227.87479 L 155.12228,221.99287 L 158.06324,217.74482 L 156.42937,212.18968 L 149.56714,213.82355 C 149.56714,213.82355 148.58682,212.18968 148.58682,210.88259 C 148.58682,209.5755 148.26004,205.00067 148.26004,203.36681 C 148.26004,201.73294 147.27972,197.81167 147.27972,197.81167 C 147.27972,197.81167 144.99231,194.54393 143.03167,193.56361 C 141.07104,192.5833 140.09072,189.96911 140.09072,189.96911 L 136.49621,189.96911 L 134.86235,186.70138 L 139.43717,183.43365 L 144.66554,180.49269 L 145.97263,174.93755 C 145.97263,174.93755 146.2994,173.95723 148.58682,173.30368 C 150.87423,172.65014 153.16164,172.97691 153.16164,172.97691 L 156.75614,172.65014 L 156.42937,167.42177 L 161.65774,165.46113 L 161.65774,165.46113 L 158.06324,162.1934 L 153.16164,162.52017 L 149.56714,159.25244 C 149.56714,159.25244 148.91359,157.94535 146.95295,159.57921 C 144.99231,161.21308 143.03167,162.52017 143.03167,162.52017 L 140.09072,163.50049 L 137.8033,155.98471 L 138.78362,151.73666 L 135.18912,148.14215 L 129.63398,149.77602 L 125.05915,151.40988 L 124.40561,145.2012 L 123.09851,140.2996 L 120.48433,132.78382 L 124.73238,126.57513 L 128.00011,121.34676 L 134.86235,119.05935 L 143.03167,118.4058 L 146.62618,113.17743 L 146.2994,106.64197 L 152.83487,103.04747 L 153.16164,98.145873 L 144.01199,97.165553 L 138.78362,96.838783 C 138.78362,96.838783 136.16944,95.531683 136.82298,94.224593 C 137.47653,92.917503 139.43717,87.689132 139.43717,87.689132 L 137.47653,81.15367 L 135.84267,74.291435 L 133.55525,69.389838 L 123.75206,63.507923 L 120.48433,59.259872 L 122.1182,55.338595 L 121.46465,43.574763 L 122.1182,36.712528 L 105.12599,38.019621 L 86.8267,40.960578 L 76.696734,46.515721 L 69.834499,53.70473 L 68.854179,55.338595 L 55.129709,49.456679 L 48.267474,47.822814 L 36.830415,48.803133 L 28.987861,44.22831 L 21.472079,44.881856 L 8.401155,47.822814 L 2.846012,52.070864 L 1.8656931,56.972461 L 5.133424,70.370158 L 11.01534,82.460763 L 23.759491,89.649773 C 23.759491,89.649773 28.334315,88.996223 30.948499,89.976543 C 33.562684,90.956863 41.732012,96.512003 41.732012,96.512003 L 51.208432,105.66165 L 52.842297,111.54357 L 57.743894,115.79162 L 55.129709,129.18931 L 56.436801,136.37832 L 64.932902,147.48861 L 67.547087,156.31148 L 71.141591,163.82726 L 74.082549,169.38241 L 83.232196,161.53985 L 84.866061,160.23276 L 77.35028,172.97691 L 70.814818,179.1856 L 69.507726,182.45333 L 66.566768,186.04783 L 65.259675,192.91007 L 62.972263,194.54393 L 61.338398,194.54393 L 59.377759,199.7723 L 60.031306,205.00067 L 55.129709,209.90227 L 49.247793,215.78419 L 45.653289,217.74482 L 41.732012,218.0716 L 41.732012,227.54802 L 25.393357,236.69766 C 25.393357,236.69766 19.511441,237.35121 18.204348,239.9654 C 16.897256,242.57958 19.184668,245.19377 19.184668,245.19377 L 23.759491,250.42213 L 29.96818,254.01664 L 31.275272,256.30405 z "
       style="fill:#faecd6;fill-opacity:1;fill-rule:evenodd;stroke:#000000;stroke-width:1px;stroke-linecap:butt;stroke-linejoin:miter;stroke-opacity:1"
       id="path1757" />
    <path
       d="M 164.28125,19.055343 C 164.28125,19.055343 164.92593,26.580431 163.61884,28.867843 C 162.31175,31.155253 161.34375,33.430343 161.34375,33.430343 L 153.5,33.430343 C 153.50001,33.430343 142.17374,29.680348 140.5,30.149093 C 140.47456,30.157103 140.42667,30.170131 140.40625,30.180343 C 139.09915,30.833889 136.15701,34.410662 132.5625,33.430343 C 128.96799,32.450024 125.40085,36.07232 124.09375,36.399093 C 124.08354,36.401646 124.04463,36.394641 124.03125,36.399093 C 123.77975,36.48984 123.07464,36.85074 122.0625,37.399093 L 121.46875,43.586593 L 122.125,55.336593 L 120.46875,59.274093 L 123.75,63.492843 L 133.5625,69.399093 L 135.84375,74.305343 L 137.46875,81.149093 L 139.4375,87.680343 C 139.4375,87.680343 137.46605,92.904503 136.8125,94.211593 C 136.67975,94.477093 136.69365,94.769543 136.78125,95.024093 C 137.14684,96.009583 138.78125,96.836593 138.78125,96.836593 L 144,97.180343 L 153.15625,98.149093 L 152.84375,103.05534 L 146.3125,106.64909 L 146.625,113.18034 L 143.03125,118.39909 L 134.875,119.05534 L 128,121.33659 L 124.71875,126.58659 L 120.46875,132.77409 L 123.09375,140.30534 L 124.40625,145.21159 L 125.0625,151.39909 L 129.625,149.77409 L 135.1875,148.14909 L 138.78125,151.74284 L 137.8125,155.99284 L 140.09375,163.49284 L 143.03125,162.52409 C 143.03125,162.52409 144.97685,161.22047 146.9375,159.58659 C 147.56552,159.06324 148.08747,158.83356 148.46875,158.77409 C 148.87205,158.71867 149.17213,158.8552 149.34375,158.99284 C 149.37327,159.01797 149.41452,159.06234 149.4375,159.08659 C 149.44285,159.09252 149.46379,159.11208 149.46875,159.11784 C 149.50988,159.16786 149.55065,159.2222 149.5625,159.24284 L 153.15625,162.52409 L 158.0625,162.18034 L 161.65625,165.46159 L 160.875,165.77409 L 173.75,171.02409 L 183.5625,166.77409 L 194,167.74284 L 199.875,171.02409 L 203.8125,170.02409 C 203.81251,170.02409 208.38581,171.6572 211,173.61784 C 213.61419,175.57847 215.5625,179.18034 215.5625,179.18034 L 216.875,181.46159 L 220.46875,181.80534 C 220.46875,181.80533 221.77779,178.84546 224.71875,177.21159 C 227.65971,175.57772 236.15625,175.58659 236.15625,175.58659 C 236.15626,175.58659 238.11614,174.93575 239.75,176.24284 C 241.38386,177.54993 243.03125,180.49284 243.03125,180.49284 L 246.28125,178.21159 L 251.1875,175.58659 L 259.03125,179.52409 L 260.34375,183.43034 L 268.84375,183.77409 L 276.6875,183.77409 L 285.84375,188.33659 L 295.3125,192.24284 L 306.75,183.43034 L 310,179.52409 L 308.0625,175.93034 L 302.8125,171.02409 L 300.53125,170.36784 L 294.65625,173.61784 L 288.78125,172.33659 L 289.4375,167.74284 L 288.78125,160.55534 L 288.125,152.39909 C 288.125,152.3991 293.33759,147.82848 295.625,145.86784 C 297.91243,143.90721 303.15625,144.86784 303.15625,144.86784 L 311.65625,143.55534 L 316.21875,138.33659 L 321.78125,134.43034 C 321.78126,134.43034 320.80093,123.29453 321.78125,120.68034 C 322.43991,118.92394 323.10743,118.64459 323.46875,118.64909 C 323.49298,118.65029 323.54133,118.67703 323.5625,118.68034 C 323.5692,118.68162 323.58741,118.67892 323.59375,118.68034 C 323.59972,118.68188 323.61941,118.67872 323.625,118.68034 C 323.65623,118.69039 323.70233,118.70333 323.71875,118.71159 C 323.72617,118.71574 323.75,118.74284 323.75,118.74284 L 329.28125,118.39909 L 332.21875,116.43034 L 328.625,113.49284 L 324.0625,110.24284 L 322.75,107.61784 L 321.78125,104.36784 L 316.21875,101.08659 C 316.21876,101.08659 314.27584,101.74824 312.96875,103.05534 C 311.66165,104.36243 308.71875,103.71159 308.71875,103.71159 L 304.78125,100.43034 L 307.71875,95.867843 L 305.125,92.274093 L 300.53125,89.649093 L 298.5625,86.367843 L 303.15625,84.086593 L 308.71875,79.836593 L 315.25,77.242843 L 325.03125,77.555343 L 327,78.211593 L 336.15625,75.930343 C 336.15626,75.930344 340.40625,73.643686 340.40625,72.336593 C 340.40626,71.029502 340.71875,68.086593 340.71875,68.086593 L 337.46875,59.586593 L 335.5,57.617843 L 331.59375,56.961593 C 331.59376,56.961597 326.99729,59.578481 326.34375,57.617843 C 325.69021,55.657205 324.0625,47.836593 324.0625,47.836593 L 330.59375,43.242843 L 335.5,37.367843 L 339.4375,32.149093 L 335.8125,26.899093 L 330.28125,30.180343 L 323.75,29.836593 L 311.96875,26.242843 C 311.96876,26.242842 305.42398,25.606274 302.15625,26.586593 C 298.88852,27.566913 292.37229,33.7795 291.71875,35.086593 C 291.70343,35.117228 291.67296,35.152179 291.65625,35.180343 C 291.51327,35.408335 291.30431,35.563479 291.09375,35.649093 C 291.0513,35.665279 290.98141,35.699855 290.9375,35.711593 C 290.12509,35.912057 289.09375,35.399093 289.09375,35.399093 C 289.09376,35.399092 288.75887,32.794528 287.125,30.180343 C 285.49114,27.566158 284.18209,26.922232 282.875,24.961593 C 282.19082,23.935322 282.32233,23.240298 282.03125,22.649093 C 282.00859,22.60514 281.96547,22.536103 281.9375,22.492843 C 281.62268,22.026834 280.93554,21.575523 279.28125,21.024093 C 275.3753,19.722106 265.95923,20.383336 263.625,22.649093 C 261.33758,24.936504 263.625,31.149093 263.625,31.149093 C 263.62499,31.149092 264.58023,35.069616 261.3125,34.742843 C 258.04476,34.416068 256.4375,31.805343 256.4375,31.805343 L 251.1875,33.117843 L 249.21875,34.430343 C 249.21874,34.430342 246.61689,29.85357 244.65625,30.180343 C 242.69561,30.507116 239.4375,34.430343 239.4375,34.430343 C 239.43751,34.430342 234.86419,38.660663 232.25,37.680343 C 229.63583,36.700023 224.08564,33.768685 222.125,32.461593 C 220.16437,31.154501 206.4375,22.336593 206.4375,22.336593 C 206.4375,22.336595 203.14273,29.524093 199.875,29.524093 C 196.60728,29.524092 193.69366,30.177639 191.40625,29.524093 C 189.11884,28.870546 184.84375,26.899093 184.84375,26.899093 C 184.84375,26.899093 182.57137,22.33389 180.9375,21.680343 C 179.30364,21.026797 164.28125,19.055343 164.28125,19.055343 z "
       style="fill:#fddca9;fill-opacity:1;fill-rule:evenodd;stroke:#000000;stroke-width:1px;stroke-linecap:butt;stroke-linejoin:miter;stroke-opacity:1"
       id="path1759" />
    <path
       d="M 314.59375,5.1875 C 314.55878,5.1885325 314.53376,5.2135 314.5,5.21875 C 314.39404,5.2352292 314.28163,5.2709798 314.1875,5.3125 C 314.13171,5.338823 314.05172,5.371811 314,5.40625 C 313.93192,5.4538945 313.84241,5.5330977 313.78125,5.59375 C 313.01973,6.3787529 312.78125,8.1498407 312.78125,9.4375 C 312.87343,11.342554 318.78125,17.75 318.78125,17.75 C 318.78126,17.75 329.87024,19.138246 331.71875,20.0625 C 333.56727,20.986753 335.875,26.0625 335.875,26.0625 L 335.4375,27.125 L 335.8125,26.90625 L 339.4375,32.15625 L 335.5,37.375 L 330.59375,43.25 L 324.0625,47.84375 C 324.0625,47.843749 325.69021,55.664362 326.34375,57.625 C 326.99729,59.585637 331.59376,56.968754 331.59375,56.96875 L 335.5,57.625 L 337.46875,59.59375 L 340.71875,68.09375 C 340.71875,68.093749 340.40626,71.036659 340.40625,72.34375 C 340.40625,73.650842 336.15626,75.937501 336.15625,75.9375 L 327,78.21875 L 325.03125,77.5625 L 315.25,77.25 L 308.71875,79.84375 L 303.15625,84.09375 L 298.5625,86.375 L 300.53125,89.65625 L 305.125,92.28125 L 307.71875,95.875 L 304.78125,100.4375 L 308.71875,103.71875 C 308.71875,103.71875 311.66165,104.36959 312.96875,103.0625 C 314.27584,101.7554 316.21876,101.09375 316.21875,101.09375 L 321.78125,104.375 L 322.75,107.625 L 324.0625,110.25 L 328.625,113.5 L 332.21875,116.4375 L 329.28125,118.40625 L 323.75,118.75 C 323.74656,118.74635 323.72203,118.72187 323.71875,118.71875 C 323.71525,118.7189 323.69037,118.71872 323.6875,118.71875 C 323.67658,118.71316 323.63545,118.69297 323.625,118.6875 C 323.62182,118.6877 323.59652,118.68745 323.59375,118.6875 C 323.59066,118.68767 323.56525,118.68745 323.5625,118.6875 C 323.55225,118.6823 323.51124,118.66208 323.5,118.65625 C 323.49716,118.65625 323.47217,118.65611 323.46875,118.65625 C 323.45182,118.65604 323.42839,118.65689 323.40625,118.65625 C 323.39514,118.65618 323.3542,118.65547 323.34375,118.65625 C 323.3401,118.65721 323.3164,118.65499 323.3125,118.65625 C 323.30009,118.66094 323.26153,118.68363 323.25,118.6875 C 323.2282,118.69424 323.1791,118.70965 323.15625,118.71875 C 323.09441,118.74525 323.00583,118.79673 322.9375,118.84375 C 322.88571,118.88119 322.80475,118.9484 322.75,119 C 322.45562,119.28883 322.11058,119.8093 321.78125,120.6875 C 320.80093,123.30169 321.78126,134.4375 321.78125,134.4375 L 316.21875,138.34375 L 311.65625,143.5625 L 303.15625,144.875 C 303.15625,144.875 297.91243,143.91437 295.625,145.875 C 293.33759,147.83564 288.125,152.40626 288.125,152.40625 L 288.78125,160.5625 L 289.4375,167.75 L 288.78125,172.34375 L 294.65625,173.625 L 300.53125,170.375 L 302.8125,171.03125 L 308.0625,175.9375 L 310,179.53125 L 306.75,183.4375 L 295.75,191.9375 L 296.59375,194.75 L 302.15625,200.28125 L 313.25,201.65625 L 316.46875,200.28125 L 317.40625,195.1875 L 323.40625,191.03125 L 334.5,196.125 L 352.0625,196.59375 L 361.75,191.96875 L 364.53125,184.5625 L 364.0625,180.40625 L 370.53125,177.625 L 378.40625,171.625 L 386.25,171.625 C 386.25002,171.625 389.02173,173.01324 392.71875,173.9375 C 396.41578,174.86175 408.4375,175.78125 408.4375,175.78125 L 422.3125,187.8125 L 433.40625,199.375 C 433.40625,199.37501 434.78787,192.44225 435.25,190.59375 C 435.71213,188.74525 443.5625,177.625 443.5625,177.625 C 443.56251,177.62501 467.59562,161.92425 469.90625,161 C 472.2169,160.07575 481.90625,153.15625 481.90625,153.15625 C 481.90624,153.15625 492.07202,141.60803 488.375,136.0625 C 484.67799,130.51699 478.21875,125.875 478.21875,125.875 C 478.21875,125.875 462.50476,119.40438 460.65625,117.09375 C 458.80773,114.78312 458.33526,111.54739 455.5625,108.3125 C 452.78973,105.07761 448.65625,106.46875 448.65625,106.46875 L 444.03125,97.21875 L 445.875,93.53125 C 445.87502,93.531249 448.19412,93.06064 448.65625,90.75 C 449.11839,88.439372 448.1875,85.6875 448.1875,85.6875 C 448.1875,85.6875 448.17234,84.73722 447.59375,84.15625 C 447.00629,83.595326 445.83703,83.385281 443.5625,84.75 C 438.94125,87.522762 435.25,92.59375 435.25,92.59375 C 435.25,92.593749 429.71027,97.24338 426.9375,96.78125 C 424.16475,96.319129 422.29263,93.53601 420.90625,91.6875 C 419.51986,89.838989 419.07202,86.591885 415.375,84.28125 C 411.67799,81.970616 411.21689,82.432742 408.90625,84.28125 C 406.59563,86.129759 405.67901,89.375 402.90625,89.375 C 400.30678,89.374999 399.30158,88.151062 399.1875,88 C 399.1875,87.999995 396.41288,83.841885 396.875,81.53125 C 397.03589,80.726814 397.21286,80.267562 397.21875,80.03125 C 397.21861,80.028826 397.21866,80.006621 397.21875,80 C 397.21783,79.997695 397.22011,79.971526 397.21875,79.96875 C 397.21524,79.962494 397.19043,79.942889 397.1875,79.9375 C 397.18757,79.934675 397.18727,79.909706 397.1875,79.90625 C 397.18203,79.900747 397.16192,79.880389 397.15625,79.875 C 397.15183,79.870524 397.13336,79.851926 397.125,79.84375 C 397.11974,79.838179 397.09924,79.817991 397.09375,79.8125 C 396.82098,79.668274 396.08004,79.652332 394.5625,79.21875 C 391.32762,78.294498 390.40439,79.654384 388.09375,77.34375 C 385.78313,75.033112 387.62975,76.440393 385.78125,72.28125 C 384.46707,69.324357 384.08653,67.059109 383.3125,66.5 C 383.30605,66.4957 383.2885,66.473176 383.28125,66.46875 C 383.24993,66.450957 383.18855,66.420259 383.15625,66.40625 C 383.14864,66.403243 383.13194,66.408658 383.125,66.40625 C 383.0995,66.398691 383.05796,66.379691 383.03125,66.375 C 382.77813,66.340403 382.4602,66.443911 382.09375,66.71875 C 380.24523,68.105129 378.40625,69.508488 378.40625,72.28125 C 378.40625,75.054009 378.875,80.125 378.875,80.125 C 378.875,80.124999 375.16101,76.90625 373.3125,76.90625 C 371.464,76.906248 367.78125,77.34375 367.78125,77.34375 C 367.78126,77.343747 365.47537,75.973508 365.9375,74.125 C 366.36531,72.413688 364.80796,66.326283 366.40625,63.96875 C 366.52968,63.792084 366.68128,63.629973 366.84375,63.5 C 369.15438,61.651488 372.40149,61.1875 374.25,61.1875 C 376.09851,61.187499 377.02835,62.573881 381.1875,61.1875 C 385.34664,59.801118 388.09375,57.5 388.09375,57.5 C 388.09376,57.499998 398.25662,59.328638 398.71875,56.09375 C 399.18088,52.858861 401.02939,50.098507 398.71875,48.25 C 397.02188,46.8925 396.80788,45.528913 395.90625,44.90625 C 395.58439,44.693135 395.15821,44.5625 394.5625,44.5625 C 392.25187,44.562499 386.25,43.625 386.25,43.625 C 386.25002,43.625 382.09664,36.230131 377.9375,34.84375 C 373.77835,33.457368 372.85326,37.149627 369.15625,36.6875 C 365.45922,36.225373 353.90625,35.3125 353.90625,35.3125 L 355.28125,32.53125 C 355.28126,32.531249 363.60037,29.297388 364.0625,26.0625 C 364.52462,22.827609 356.6875,10.34375 356.6875,10.34375 C 356.68736,10.341296 356.68817,10.316074 356.6875,10.3125 C 356.68203,10.290026 356.66385,10.249313 356.65625,10.21875 C 356.65632,10.216031 356.65605,10.190626 356.65625,10.1875 C 356.65525,10.185242 356.65761,10.158947 356.65625,10.15625 C 356.65291,10.150126 356.62786,10.13048 356.625,10.125 C 356.61251,10.094181 356.58308,10.034836 356.5625,10 C 356.52696,9.9502447 356.46554,9.883917 356.40625,9.84375 C 356.39948,9.8396883 356.38274,9.8168561 356.375,9.8125 C 356.32803,9.7877683 356.2409,9.7638628 356.1875,9.75 C 356.1767,9.7500715 356.13597,9.7497884 356.125,9.75 C 356.11428,9.7500107 356.0734,9.7498372 356.0625,9.75 C 355.98945,9.7463028 355.87747,9.7407448 355.78125,9.75 C 355.77445,9.750876 355.75669,9.7488892 355.75,9.75 C 355.42186,9.8101017 354.97071,9.9863243 354.375,10.34375 C 352.06437,11.730131 348.375,15.4375 348.375,15.4375 C 348.37501,15.4375 346.52938,17.294497 344.21875,18.21875 C 341.9081,19.143002 340.03415,17.292631 335.875,15.90625 C 331.71586,14.519869 329.87975,13.131623 328.03125,13.59375 C 327.09391,13.828085 326.7254,14.533893 326.3125,14.875 C 326.30581,14.880309 326.28798,14.901141 326.28125,14.90625 C 326.27816,14.909582 326.25273,14.934726 326.25,14.9375 C 326.23914,14.942956 326.19842,14.963506 326.1875,14.96875 C 326.17396,14.976035 326.13884,14.993639 326.125,15 C 326.11421,15.005648 326.07338,15.025852 326.0625,15.03125 C 326.05612,15.03316 326.03842,15.029386 326.03125,15.03125 C 326.00018,15.038324 325.93876,15.058897 325.90625,15.0625 C 325.89854,15.063062 325.8821,15.062326 325.875,15.0625 C 325.53679,15.058037 325.08388,14.802625 324.34375,14.0625 C 322.03311,11.751866 318.78125,7.125 318.78125,7.125 C 318.78126,7.1250001 316.94226,5.743377 315.09375,5.28125 C 314.91775,5.2372484 314.7453,5.1830257 314.59375,5.1875 z M 349.40625,65.59375 C 350.61821,65.556249 351.87912,65.709708 352.75,66 C 354.73393,66.66131 355.2487,67.328572 358.6875,69.3125 C 362.12632,71.296431 361.2159,72.501547 362.40625,74.75 C 363.59661,76.998455 362.79356,78.694107 362,80.28125 C 361.20642,81.868395 357.90755,83.064704 354.46875,83.59375 C 351.0389,84.12142 348.92327,80.288378 347.46875,78.5625 C 347.46864,78.559019 347.4688,78.534115 347.46875,78.53125 C 347.46877,78.526233 347.46906,78.505646 347.46875,78.5 C 347.46874,78.496766 347.46861,78.47264 347.46875,78.46875 C 347.46936,78.455201 347.46956,78.417468 347.46875,78.40625 C 347.25302,77.404274 345.00557,72.526535 344.40625,71.6875 C 344.39328,71.667882 344.35922,71.619443 344.34375,71.59375 C 344.33594,71.577607 344.31951,71.548224 344.3125,71.53125 C 343.89873,70.445012 345.00618,67.773304 345.875,66.65625 C 346.36913,66.060158 347.64661,65.711087 349.03125,65.625 C 349.15507,65.617302 349.28087,65.597629 349.40625,65.59375 z M 398.34375,91.1875 C 398.8469,91.160241 399.23622,91.25348 399.53125,91.375 C 400.38869,91.746891 400.58787,92.647561 401.40625,93.375 C 402.59661,94.433097 402.60761,94.850355 404.0625,96.4375 C 405.01727,97.479063 404.98858,97.959295 404.75,98.34375 C 404.62571,98.534167 404.44269,98.720508 404.3125,98.9375 C 403.91572,99.59881 403.9331,100.26892 402.875,101.0625 C 401.8169,101.85607 401.26958,101.99274 400.34375,102.125 C 399.41792,102.25726 399.17429,101.60168 396,99.75 C 395.99275,99.749826 395.96991,99.749707 395.96875,99.75 C 395.96605,99.749936 395.94032,99.750275 395.9375,99.75 C 395.93439,99.746317 395.90901,99.721674 395.90625,99.71875 C 395.49832,99.546096 394.30778,98.062924 393.46875,97.34375 C 392.54292,96.550178 392.55743,94.829886 393.21875,93.375 C 393.88006,91.920118 395.33078,91.678035 397.84375,91.28125 C 397.92964,91.267688 398.01414,91.232735 398.09375,91.21875 C 398.09942,91.217927 398.11935,91.219374 398.125,91.21875 C 398.20178,91.210265 398.27187,91.191394 398.34375,91.1875 z "
       style="fill:#f7c77d;fill-opacity:1;fill-rule:evenodd;stroke:#000000;stroke-width:1px;stroke-linecap:butt;stroke-linejoin:miter;stroke-opacity:1"
       id="path1764" />
    <path
       d="M 160.875,165.77409 L 156.4375,167.43034 L 156.75,172.64909 L 153.15625,172.96159 C 153.15625,172.96159 150.88116,172.6518 148.59375,173.30534 C 147.05689,173.74444 146.38727,174.34265 146.125,174.68034 C 146.04542,174.78644 145.98814,174.88999 145.96875,174.93034 L 144.65625,180.49284 L 139.4375,183.43034 L 134.875,186.71159 L 136.5,189.96159 L 140.09375,189.96159 C 140.09375,189.96159 141.07061,192.57503 143.03125,193.55534 C 144.99189,194.53566 147.28125,197.80534 147.28125,197.80534 C 147.28125,197.80534 148.25,201.73398 148.25,203.36784 C 148.25,205.0017 148.59375,209.56074 148.59375,210.86784 C 148.59375,212.17493 149.5625,213.8366 149.5625,213.83659 L 156.4375,212.18034 L 158.0625,217.74284 L 155.125,221.99284 L 155.4375,227.86784 L 161,234.74284 L 159.6875,238.64909 L 154.15625,240.93034 L 147.9375,242.24284 L 142.0625,242.89909 L 139.4375,242.24284 C 139.4375,242.24284 136.49459,241.5866 135.1875,241.58659 C 133.88041,241.58659 129.62499,244.21159 129.625,244.21159 L 123.75,243.55534 L 119.5,241.58659 L 118.1875,233.74284 L 108.40625,236.36784 L 105.78125,239.64909 L 101.84375,238.33659 L 100.21875,237.68034 L 92.375,236.71159 L 83.5625,232.77409 L 80.28125,234.39909 L 78.34375,236.71159 L 75.375,236.71159 L 73.4375,236.36784 L 70.5,233.43034 L 66.25,234.08659 L 62.96875,236.71159 L 51.875,237.33659 L 45.65625,244.21159 L 38.125,246.49284 L 31.6875,255.71159 L 31.9375,256.61784 C 31.937501,256.61785 35.838343,262.50906 34.53125,266.43034 C 33.224158,270.3516 28.65625,280.80534 28.65625,280.80534 C 28.65625,280.80534 28.639201,280.82638 28.625,280.83659 C 28.328284,281.0587 26.751474,282.37374 27.34375,284.74284 C 27.997295,287.35702 32.567908,293.2224 33.875,295.83659 C 35.182092,298.45076 41.09375,306.30534 41.09375,306.30534 L 52.84375,309.55534 L 58.71875,303.68034 L 60.03125,301.71159 L 64.59375,306.96159 L 64.59375,310.86784 L 68.53125,314.14909 L 73.09375,310.86784 L 75.0625,303.68034 L 81.59375,306.96159 L 89.4375,306.30534 L 95.96875,316.11784 L 103.15625,329.18034 L 110.34375,331.77409 L 114.9375,335.71159 C 114.9375,335.7116 123.42248,330.49014 127.34375,329.83659 C 131.26503,329.18303 142.375,331.77409 142.375,331.77409 L 156.09375,332.43034 L 152.1875,320.02409 L 148.90625,310.86784 L 151.53125,308.27409 L 159.375,314.14909 L 164.59375,315.46159 L 169.8125,310.21159 L 171.78125,302.36784 L 182.90625,303.02409 L 192.0625,314.80534 L 203.15625,325.24284 L 209.6875,323.96159 L 211,319.36784 L 209.03125,312.83659 L 211,306.96159 L 218.1875,305.64909 L 219.5,299.77409 L 213.625,296.49284 L 212.96875,291.93034 C 212.96875,291.93035 212.97228,286.99375 214.96875,286.14909 C 215.02038,286.12833 215.10195,286.1018 215.15625,286.08659 C 215.25663,286.06046 215.39029,286.06119 215.5,286.05534 C 215.52011,286.05463 215.54208,286.05534 215.5625,286.05534 C 218.17669,286.05535 222.125,285.39909 222.125,285.39909 L 222.125,270.36784 L 232.5625,267.08659 C 232.5625,267.08658 233.21875,264.48203 233.21875,261.86784 C 233.21875,259.25365 239.09375,248.77409 239.09375,248.77409 C 239.09375,248.77408 240.40896,238.32577 241.0625,235.71159 C 241.71605,233.09741 248.90625,225.27409 248.90625,225.27409 L 248.25,220.68034 C 248.24999,220.68033 250.86148,211.54994 247.59375,210.24284 C 244.32601,208.93574 243.67669,210.21429 241.0625,210.86784 C 238.44832,211.52138 231.90625,208.93034 231.90625,208.93034 C 231.90625,208.93034 227.47878,207.43304 227.15625,205.33659 C 227.14082,205.22297 227.14614,205.07869 227.15625,204.96159 C 227.17684,204.76596 227.24163,204.54082 227.34375,204.33659 C 228.48747,202.04917 229.63819,201.77858 229.90625,201.74284 L 227.34375,200.43034 L 220.15625,197.80534 C 219.96396,197.80101 216.85188,197.67471 216.21875,193.24284 C 215.5652,188.66802 215.5625,184.08659 215.5625,184.08659 L 216.6875,181.11784 L 215.5625,179.18034 C 215.5625,179.18034 213.61419,175.57847 211,173.61784 C 208.38581,171.6572 203.81251,170.02409 203.8125,170.02409 L 199.875,171.02409 L 194,167.74284 L 183.5625,166.77409 L 173.75,171.02409 L 160.875,165.77409 z "
       style="fill:#e8d0ac;fill-opacity:1;fill-rule:evenodd;stroke:#000000;stroke-width:1px;stroke-linecap:butt;stroke-linejoin:miter;stroke-opacity:1"
       id="path1769" />
    <path
       d="M 60.03125,301.71159 L 58.71875,303.68034 L 52.84375,309.55534 L 52.375,309.43034 L 52.84375,312.18034 L 49.5625,318.71159 L 50.875,326.55534 L 57.40625,333.08659 C 57.406249,333.08661 59.364185,335.7143 56.75,336.36784 C 54.135817,337.0214 52.176685,336.37325 49.5625,337.68034 C 46.948315,338.98745 43.707934,340.2795 41.09375,341.58659 C 39.745812,342.26055 38.719565,342.60549 38.15625,343.21159 C 37.647872,343.77973 37.501044,344.62306 37.8125,346.18034 C 38.466047,349.44809 45,350.74284 45,350.74284 C 44.999999,350.74285 46.294769,357.27679 49.5625,357.93034 C 52.830231,358.58388 89.4375,371.64909 89.4375,371.64909 C 89.437498,371.6491 91.388523,376.86784 94.65625,376.86784 C 97.92399,376.86783 111.00541,381.45618 111.00541,381.45618 C 111.00541,381.45617 129.65795,380.34221 137.15895,378.842 C 146.96215,376.88134 176.375,374.27409 176.375,374.27409 L 192.6875,378.83659 L 192.6875,368.39909 L 191.40625,361.83659 L 187.46875,355.96159 L 191.40625,347.46159 L 199.25,347.46159 L 205.78125,350.74284 L 212.3125,344.21159 L 216.875,337.68034 L 213.625,329.18034 L 209.03125,324.08659 L 203.15625,325.24284 L 192.0625,314.80534 L 182.90625,303.02409 L 171.78125,302.36784 L 169.8125,310.21159 L 164.59375,315.46159 L 159.375,314.14909 L 151.53125,308.27409 L 148.90625,310.86784 L 152.1875,320.02409 L 156.09375,332.43034 L 142.375,331.77409 C 142.375,331.77409 131.26503,329.18303 127.34375,329.83659 C 123.42248,330.49014 114.9375,335.7116 114.9375,335.71159 L 110.34375,331.77409 L 103.15625,329.18034 L 95.96875,316.11784 L 89.4375,306.30534 L 81.59375,306.96159 L 75.0625,303.68034 L 73.09375,310.86784 L 68.53125,314.14909 L 64.59375,310.86784 L 64.59375,306.96159 L 60.03125,301.71159 z "
       style="fill:#f7c77d;fill-opacity:1;fill-rule:evenodd;stroke:#000000;stroke-width:1px;stroke-linecap:butt;stroke-linejoin:miter;stroke-opacity:1"
       id="path1782" />
    <path
       d="M 378.40625,171.61784 L 370.53125,177.61784 L 364.0625,180.39909 L 364.53125,184.55534 L 361.75,191.96159 L 352.0625,196.58659 L 334.5,196.11784 L 323.40625,191.02409 L 317.40625,195.18034 L 316.46875,200.27409 L 313.25,201.64909 L 303.375,200.43034 L 299.96875,205.30534 L 301.78125,215.86784 L 302.25,225.05534 L 310.96875,227.80534 C 310.96876,227.80535 322.42917,233.75949 320.59375,237.43034 C 319.13113,240.35555 315.62554,243.2911 315.65625,245.05534 C 315.65645,245.06071 315.65544,245.08044 315.65625,245.08659 C 315.66133,245.11342 315.68133,245.15386 315.6875,245.18034 C 315.68872,245.18636 315.68676,245.2064 315.6875,245.21159 C 315.69521,245.258 315.70514,245.31912 315.71875,245.36784 C 315.72605,245.39215 315.7412,245.43786 315.75,245.46159 C 315.7655,245.50058 315.7928,245.55212 315.8125,245.58659 C 315.83616,245.62176 315.88254,245.68106 315.90625,245.71159 C 315.96251,245.78074 316.04729,245.8677 316.125,245.93034 C 316.15697,245.95513 316.21443,246.00038 316.25,246.02409 C 316.31384,246.06511 316.39347,246.11145 316.46875,246.14909 C 319.22187,247.52565 326.125,249.36784 326.125,249.36784 L 325.1875,263.11784 C 325.18751,263.11783 328.79797,274.4299 328.40625,276.39909 C 328.40631,276.40181 328.40603,276.42735 328.40625,276.43034 C 328.40446,276.43751 328.40789,276.45407 328.40625,276.46159 C 328.02857,278.45922 332.53125,291.58659 332.53125,291.58659 L 328.40625,308.55534 L 334.8125,322.30534 L 334.8125,343.89909 C 334.81249,343.89908 347.38257,351.96422 348.5625,354.36784 C 348.56805,354.37851 348.58856,354.41986 348.59375,354.43034 C 349.51147,356.72461 346.3125,362.71159 346.3125,362.71159 L 349.96875,369.11784 L 356.84375,378.30534 L 354.09375,387.46159 L 357.78125,393.89909 L 361.90625,399.39909 L 359.59375,412.24284 C 359.59375,412.24285 356.62644,415.59246 357.4375,417.43034 C 357.48408,417.53075 357.55404,417.65239 357.625,417.74284 C 357.69201,417.82492 357.78552,417.92054 357.875,417.99284 C 357.97494,418.07068 358.0897,418.14706 358.21875,418.21159 C 360.97188,419.58817 360.53125,427.86784 360.53125,427.86784 L 372.90625,426.93034 L 382.09375,425.08659 L 388.0625,420.05534 L 395.84375,406.27409 L 401.8125,402.61784 L 412.375,401.24284 L 426.59375,401.71159 L 431.65625,404.46159 L 437.15625,401.71159 L 444.9375,403.99284 L 454.59375,400.33659 L 465.59375,390.24284 L 472.5,387.93034 L 481.67447,392.97148 C 481.67448,392.97149 485.79947,387.9418 488.09375,387.02409 C 490.38804,386.10639 512.85051,383.33659 516.0625,383.33659 C 519.2745,383.33659 531.22707,387.48137 533.0625,388.39909 C 533.07317,388.40474 533.10879,388.42216 533.125,388.43034 C 534.81352,389.47552 534.90644,395.73682 536.125,396.58659 C 536.13572,396.59209 536.1767,396.61276 536.1875,396.61784 C 536.19303,396.62357 536.21321,396.64341 536.21875,396.64909 C 536.22199,396.64883 536.24723,396.64917 536.25,396.64909 C 537.62658,397.10794 540.40625,395.27409 540.40625,395.27409 C 540.40627,395.2741 540.39322,389.3168 542.6875,388.39909 C 544.98176,387.48136 549.5625,386.55534 549.5625,386.55534 L 557.84375,371.86784 C 557.84376,371.86785 555.07239,368.66212 555.53125,366.36784 C 555.99009,364.07356 555.09062,361.3168 557.84375,360.39909 C 560.5969,359.48138 565.63333,359.94337 567.46875,357.64909 C 567.49743,357.61324 567.53559,357.56302 567.5625,357.52409 C 569.22354,355.03426 567.46875,346.64909 567.46875,346.64909 L 573.90625,331.02409 C 573.90627,331.02409 573.87656,326.44337 572.5,324.14909 C 571.12342,321.85481 567.9375,321.85951 567.9375,320.02409 C 567.93749,318.18867 567.9375,315.89909 567.9375,315.89909 C 567.93749,315.89909 570.22189,312.68348 567.46875,309.93034 C 564.71561,307.1772 559.22188,302.57826 556.46875,300.74284 C 553.71558,298.90742 533.97032,296.61108 532.59375,293.39909 C 531.21719,290.18709 531.21875,286.99284 531.21875,286.99284 C 531.21877,286.99283 509.66095,278.25587 505.53125,275.96159 C 501.40153,273.66731 495.4375,268.18034 495.4375,268.18034 L 485.78125,267.24284 C 485.78126,267.24284 482.10835,266.80847 478.4375,264.05534 C 474.76666,261.30219 449.07396,240.18661 448.15625,234.68034 C 447.23854,229.17406 450.46718,223.67202 451.84375,221.83659 C 453.22033,220.00117 454.11667,218.60951 452.28125,216.77409 C 450.44583,214.93866 443.56563,214.93348 440.8125,212.18034 C 438.05936,209.42721 438.08385,208.04858 437.625,204.83659 C 437.47713,203.80148 437.45357,203.37509 437.40625,203.14909 C 437.40459,203.14196 437.408,203.1246 437.40625,203.11784 C 437.40217,203.10749 437.38068,203.06689 437.375,203.05534 C 437.36295,203.03229 437.35242,203.00739 437.34375,202.99284 C 437.17033,202.73877 436.65049,202.59705 434.84375,200.27409 C 434.45185,199.77021 434.02755,199.10884 433.59375,198.33659 C 433.47083,198.94726 433.40625,199.36784 433.40625,199.36784 L 422.3125,187.80534 L 408.4375,175.77409 C 408.4375,175.77409 396.41578,174.85459 392.71875,173.93034 C 389.02173,173.00608 386.25002,171.61784 386.25,171.61784 L 378.40625,171.61784 z M 477.0625,191.49284 C 474.71914,191.76456 472.71812,194.39941 471.09375,195.21159 C 469.25834,196.12931 467.4375,197.96159 467.4375,197.96159 C 467.4375,197.96158 464.6875,198.88606 464.6875,201.18034 C 464.68751,202.89432 465.98387,204.3682 466.25,204.80534 C 466.26157,204.82548 466.27527,204.85299 466.28125,204.86784 C 466.28125,204.87071 466.28132,204.8955 466.28125,204.89909 C 466.2798,204.90085 466.25878,204.92191 466.25,204.93034 C 466.24294,204.93046 466.22033,204.93065 466.21875,204.93034 C 466.18457,204.91991 466.11589,204.89387 466.0625,204.86784 C 465.878,205.1665 462.9681,209.982 466.96875,212.64909 C 471.09846,215.40221 473.875,216.33659 473.875,216.33659 L 478.90625,209.43034 L 483.96875,204.83659 C 484.15542,204.72546 487.12181,202.89273 485.34375,199.33659 C 483.50831,195.66575 480.75313,192.01419 478,191.55534 C 477.74189,191.51232 477.46879,191.47625 477.21875,191.49284 C 477.1621,191.4966 477.11874,191.48632 477.0625,191.49284 z "
       style="fill:#e8d0ac;fill-opacity:1;fill-rule:evenodd;stroke:#000000;stroke-width:1px;stroke-linecap:butt;stroke-linejoin:miter;stroke-opacity:1"
       id="path1789" />
    <path
       d="M 404.57376,337.91937 C 412.60373,344.11392 410.30945,344.34335 413.75087,344.80221 C 417.19229,345.26106 443.34706,344.11392 445.87077,342.96678 C 448.39447,341.81964 451.60646,336.31338 453.90074,335.85452 C 456.19502,335.39566 459.86587,341.59022 462.16014,343.65507 C 464.45442,345.71992 469.27241,346.17877 470.41955,345.49049 C 471.56669,344.80221 477.30238,339.98422 480.28494,339.06651 C 483.26751,338.1488 492.67405,338.37823 495.19775,336.31338 C 497.72146,334.24852 501.85116,327.13626 502.9983,323.69484 C 504.14544,320.25343 503.45716,312.22345 501.39231,309.47032 C 499.32745,306.71718 482.34979,284.23326 479.59666,282.62726 C 476.84353,281.02127 466.7487,278.95642 461.24243,271.3853 C 455.73617,263.81418 442.65878,245.45995 441.74107,244.54224 C 440.82336,243.62453 437.15251,241.10082 434.85823,241.7891 C 432.56395,242.47739 429.35196,243.16567 428.66368,244.31281 C 427.9754,245.45995 427.74597,245.91881 427.9754,246.83652 C 428.20482,247.75423 434.6288,250.27794 434.39938,251.6545 C 434.16995,253.03107 433.25224,254.40764 433.25224,254.40764 C 433.25224,254.40764 433.02281,256.47249 430.04025,256.70191 C 427.05769,256.93134 427.28711,257.3902 425.68112,256.47249 C 424.07512,255.55478 423.8457,254.17821 421.32199,253.03107 C 418.79828,251.88393 417.19229,252.80164 415.12744,251.19565 C 413.06259,249.58965 414.20973,247.29537 414.20973,247.29537 C 414.20973,247.29537 414.20973,243.16567 413.06259,242.01853 C 411.91545,240.87139 408.47403,239.2654 405.95032,235.82398 C 403.42662,232.38256 400.67348,227.56458 398.37921,225.72916 C 396.08493,223.89373 383.00754,219.07575 380.94269,217.46975 C 378.87784,215.86376 367.63587,203.47466 364.42388,203.93351 C 361.21189,204.39237 358.91762,203.24523 357.08219,202.78637 C 355.24677,202.32752 353.64078,198.8861 351.11707,199.11553 C 348.59336,199.34495 347.67565,197.05068 345.6108,197.96839 C 343.54595,198.8861 341.93996,198.19782 340.79282,200.49209 C 339.64568,202.78637 336.66312,201.86866 339.64568,205.31008 C 342.62824,208.7515 347.2168,214.48719 347.2168,215.4049 C 347.2168,216.32261 350.19936,221.59946 348.82279,222.97602 C 347.44622,224.35259 343.31652,226.41744 341.71053,227.10572 C 340.10453,227.79401 334.82769,230.77657 334.82769,232.15314 C 334.82769,233.5297 333.68055,237.42998 336.66312,236.51226 C 339.64568,235.59455 341.25167,231.92371 344.92252,233.30027 C 348.59336,234.67684 351.3465,237.20055 353.18192,237.88883 C 355.01734,238.57712 355.24677,239.72425 357.08219,239.49483 C 358.91762,239.2654 362.12961,242.24796 361.90018,243.3951 C 361.67075,244.54224 362.58846,250.27794 363.7356,251.42507 C 364.88274,252.57221 369.93015,258.53734 370.84786,258.30791 C 371.76558,258.07848 372.22443,256.24306 374.28928,258.07848 C 376.35413,259.9139 376.1247,265.42017 377.96013,266.10846 C 379.79555,266.79674 387.36667,268.63216 388.74324,268.86159 C 390.1198,269.09102 393.56122,270.46759 394.47893,269.54987 C 395.39664,268.63216 398.37921,266.56731 398.37921,266.56731 C 398.37921,266.56731 400.90291,265.87903 401.13234,267.02617 C 401.36177,268.17331 400.90291,279.41527 399.75577,281.48012 C 398.60863,283.54497 398.14978,288.36296 398.60863,290.65723 C 399.06749,292.95151 398.37921,316.35315 398.83806,317.95915 C 399.29692,319.56514 400.90291,329.65997 401.13234,330.80711 C 401.36177,331.95425 404.80318,337.91937 404.57376,337.91937 z "
       style="fill:#e6f6f6;fill-opacity:1;fill-rule:evenodd;stroke:#bdecec;stroke-width:0.89999998;stroke-linecap:butt;stroke-linejoin:miter;stroke-miterlimit:4;stroke-dasharray:none;stroke-opacity:1"
       id="path1787" />
    <path
       d="M 236.90625,175.43034 C 236.44439,175.47347 236.15625,175.58659 236.15625,175.58659 C 236.15625,175.58659 227.65971,175.57772 224.71875,177.21159 C 221.77779,178.84546 220.46875,181.80533 220.46875,181.80534 L 216.875,181.46159 L 216.6875,181.11784 L 215.5625,184.08659 C 215.5625,184.08659 215.5652,188.66802 216.21875,193.24284 C 216.85188,197.67471 219.96396,197.80101 220.15625,197.80534 L 227.34375,200.43034 L 229.8125,201.74284 C 229.76981,201.75622 229.70948,201.78786 229.65625,201.80534 C 229.18615,201.96844 228.25515,202.5138 227.34375,204.33659 C 227.24163,204.54082 227.17684,204.76596 227.15625,204.96159 C 227.1474,205.06405 227.14707,205.20001 227.15625,205.30534 C 227.15621,205.30806 227.15636,205.33359 227.15625,205.33659 C 227.47878,207.43304 231.90625,208.93034 231.90625,208.93034 C 231.90625,208.93034 238.44832,211.52138 241.0625,210.86784 C 243.67669,210.21429 244.32601,208.93574 247.59375,210.24284 C 250.86148,211.54994 248.24999,220.68033 248.25,220.68034 L 248.90625,225.27409 C 248.90625,225.27409 241.71605,233.09741 241.0625,235.71159 C 240.40896,238.32577 239.09375,248.77408 239.09375,248.77409 C 239.09375,248.77409 233.21875,259.25365 233.21875,261.86784 C 233.21875,264.48203 232.5625,267.08658 232.5625,267.08659 L 222.125,270.36784 L 222.125,285.39909 C 222.125,285.39909 218.17669,286.05535 215.5625,286.05534 C 215.54208,286.05534 215.52011,286.05463 215.5,286.05534 C 215.404,286.06046 215.28183,286.06914 215.1875,286.08659 C 215.18475,286.08653 215.15936,286.08678 215.15625,286.08659 C 215.10195,286.1018 215.02038,286.12833 214.96875,286.14909 C 212.97228,286.99375 212.96875,291.93035 212.96875,291.93034 L 213.625,296.49284 L 219.5,299.77409 L 218.1875,305.64909 L 211,306.96159 L 209.03125,312.83659 L 210.5625,317.93034 L 210.9375,318.18034 L 220.5625,321.86784 L 225.625,318.18034 L 230.65625,320.49284 L 236.625,315.89909 L 244.4375,312.21159 L 252.21875,320.02409 L 256.8125,321.39909 L 259.5625,331.96159 L 247.1875,339.30534 L 249.46875,342.96159 L 252.21875,343.89909 L 263.71875,340.68034 L 266.46875,346.18034 L 260.03125,349.39909 L 260.9375,350.77409 L 262.78125,357.64909 L 266.46875,362.24284 L 272.4375,361.33659 L 276.5625,357.64909 L 284.8125,357.64909 L 293.0625,353.52409 L 302.25,349.39909 L 306.84375,346.64909 L 312.34375,344.33659 L 325.1875,343.89909 L 335.40625,344.27409 C 335.02882,344.02823 334.8125,343.89909 334.8125,343.89909 L 334.8125,322.30534 L 328.40625,308.55534 L 332.53125,291.58659 C 332.53125,291.58659 328.14477,278.75281 328.40625,276.52409 C 328.40601,276.51322 328.40634,276.47212 328.40625,276.46159 C 328.40619,276.45887 328.40646,276.43333 328.40625,276.43034 C 328.40603,276.42735 328.40631,276.40181 328.40625,276.39909 C 328.79797,274.4299 325.18751,263.11783 325.1875,263.11784 L 326.125,249.36784 C 326.125,249.36784 319.22187,247.52565 316.46875,246.14909 C 316.39347,246.11145 316.31384,246.06511 316.25,246.02409 C 316.21443,246.00038 316.15697,245.95513 316.125,245.93034 C 316.04729,245.8677 315.96251,245.78074 315.90625,245.71159 C 315.88254,245.68106 315.83616,245.62176 315.8125,245.58659 C 315.7928,245.55212 315.7655,245.50058 315.75,245.46159 C 315.7412,245.43786 315.72605,245.39215 315.71875,245.36784 C 315.71896,245.36472 315.71869,245.33934 315.71875,245.33659 C 315.71096,245.30166 315.69467,245.24508 315.6875,245.21159 C 315.68762,245.20838 315.6875,245.18315 315.6875,245.18034 C 315.68062,245.15819 315.66252,245.10894 315.65625,245.08659 C 315.65623,245.08379 315.65619,245.05853 315.65625,245.05534 C 315.62554,243.2911 319.13113,240.35555 320.59375,237.43034 C 322.42917,233.75949 310.96876,227.80535 310.96875,227.80534 L 302.25,225.05534 L 301.78125,215.86784 L 299.96875,205.30534 L 303.375,200.43034 L 302.15625,200.27409 L 296.59375,194.74284 L 295.75,191.93034 L 295.3125,192.24284 L 285.84375,188.33659 L 276.6875,183.77409 L 268.84375,183.77409 L 260.34375,183.43034 L 259.03125,179.52409 L 251.1875,175.58659 L 246.28125,178.21159 L 243.03125,180.49284 C 243.03125,180.49284 241.38386,177.54993 239.75,176.24284 C 238.75437,175.44633 237.62675,175.36306 236.90625,175.43034 z "
       style="fill:#faecd6;fill-opacity:1;fill-rule:evenodd;stroke:#000000;stroke-width:1px;stroke-linecap:butt;stroke-linejoin:miter;stroke-opacity:1"
       id="path1797" />
    <path
       d="M 216.25,338.5625 L 212.3125,344.21875 L 205.78125,350.75 L 199.25,347.46875 L 191.40625,347.46875 L 187.46875,355.96875 L 191.40625,361.84375 L 192.6875,368.40625 L 192.6875,378.375 C 193.6235,378.99901 194.70437,379.71958 196.71875,381.0625 C 199.47189,382.89794 209.11197,389.76822 211.40625,392.0625 C 213.70052,394.35679 216.44583,396.6448 218.28125,397.5625 C 220.11667,398.48022 220.58072,399.88175 222.875,403.09375 C 225.16928,406.30575 226.53957,408.5922 228.375,409.96875 C 230.21042,411.34533 232.95729,413.16458 233.875,415 C 234.79271,416.83544 236.6349,421.44583 237.09375,423.28125 C 237.55261,425.11668 241.67447,428.30938 243.96875,431.0625 C 245.47437,432.86926 245.8017,433.71315 245.84375,434.0625 C 245.84387,434.07909 245.8435,434.11482 245.84375,434.125 C 245.84369,434.13131 245.84402,434.15042 245.84375,434.15625 C 245.84388,434.16277 245.84405,434.18503 245.84375,434.1875 C 245.84385,434.19087 245.84373,434.21598 245.84375,434.21875 C 245.84098,434.2249 245.81572,434.24417 245.8125,434.25 C 245.80975,434.25457 245.81386,434.27886 245.8125,434.28125 C 245.8125,434.28126 245.35208,439.77967 247.1875,441.15625 C 247.57466,441.44663 247.91423,441.63462 248.1875,441.71875 C 248.2773,441.74475 248.39026,441.77211 248.46875,441.78125 C 248.50338,441.78276 248.56557,441.78086 248.59375,441.78125 C 248.76755,441.78003 248.94102,441.71895 249.0625,441.65625 C 249.08031,441.64625 249.10907,441.63554 249.125,441.625 C 249.1312,441.62055 249.15007,441.59843 249.15625,441.59375 C 249.16239,441.58886 249.18143,441.56757 249.1875,441.5625 C 249.25933,441.4999 249.33523,441.43171 249.375,441.375 C 249.3974,441.3414 249.4215,441.28414 249.4375,441.25 C 249.44804,441.22633 249.46324,441.2005 249.46875,441.1875 C 249.4697,441.18507 249.46857,441.15964 249.46875,441.15625 C 249.46875,441.15626 252.68594,442.10209 254.0625,443.9375 C 255.43907,445.77294 259.11355,450.35209 260.03125,452.1875 C 260.94896,454.02294 259.10208,455.40469 260.9375,456.78125 C 261.2673,457.02861 261.53479,457.15752 261.71875,457.21875 C 261.73919,457.22494 261.7884,457.2432 261.8125,457.25 C 261.82346,457.25004 261.86422,457.25026 261.875,457.25 C 261.88144,457.25029 261.89998,457.25 261.90625,457.25 C 261.90931,457.24987 261.9312,457.2499 261.9375,457.25 C 261.94859,457.25027 261.98906,457.25 262,457.25 C 262.0109,457.2448 262.0519,457.22452 262.0625,457.21875 C 262.06516,457.21606 262.09103,457.19069 262.09375,457.1875 C 262.10475,457.18259 262.14546,457.16168 262.15625,457.15625 C 262.17687,457.13524 262.19962,457.08874 262.21875,457.0625 C 262.49682,456.65719 262.67446,455.72073 263.71875,454.9375 C 265.55418,453.56094 267.82081,450.34217 269.65625,451.71875 C 271.49167,453.09533 271.03125,454.47706 271.03125,456.3125 C 271.03125,458.14793 271.5198,462.74688 272.4375,465.5 C 273.35521,468.25314 274.25001,471.46876 274.25,471.46875 L 276.09375,470.0625 C 276.09375,470.06251 277.93438,466.85366 280.6875,467.3125 C 280.88108,467.34476 281.0784,467.41285 281.25,467.5 C 283.49374,468.68434 283.90625,474.21875 283.90625,474.21875 C 283.90625,474.21876 289.86198,474.66613 292.15625,475.125 C 294.45053,475.58386 299.94584,474.6776 301.78125,474.21875 C 303.61668,473.7599 313.26822,469.62501 315.5625,469.625 C 317.85678,469.62501 321.96874,474.21875 321.96875,474.21875 C 321.96875,474.21876 323.36198,474.65624 325.65625,474.65625 C 327.95053,474.65626 330.23697,471.90781 332.53125,470.53125 C 334.82553,469.15469 342.15626,467.78126 342.15625,467.78125 C 342.15625,467.78126 351.3505,459.07554 354.5625,456.78125 C 356.47432,455.41567 357.42826,455.51056 357.875,455.8125 C 357.95826,455.87321 358.04386,455.96628 358.09375,456.03125 C 358.13002,456.08124 358.16707,456.14631 358.1875,456.1875 C 358.19061,456.19419 358.21231,456.20623 358.21875,456.21875 L 359.15625,453.5625 L 358.6875,447.125 L 360.53125,443 L 360.96875,434.75 L 362.34375,428.3125 L 363.03125,427.6875 L 360.53125,427.875 C 360.53125,427.87501 360.97188,419.59533 358.21875,418.21875 C 358.0897,418.15423 357.97494,418.07784 357.875,418 C 357.78552,417.92771 357.69201,417.83208 357.625,417.75 C 357.55404,417.65956 357.48408,417.53791 357.4375,417.4375 C 356.62644,415.59963 359.59375,412.25001 359.59375,412.25 L 361.90625,399.40625 L 357.78125,393.90625 L 354.09375,387.46875 L 356.84375,378.3125 L 349.96875,369.125 L 346.3125,362.71875 C 346.3125,362.71876 349.51147,356.73177 348.59375,354.4375 C 348.58856,354.42703 348.56805,354.38567 348.5625,354.375 C 347.53711,352.2862 337.91051,345.91256 335.40625,344.28125 L 325.1875,343.90625 L 312.34375,344.34375 L 306.84375,346.65625 L 302.25,349.40625 L 293.0625,353.53125 L 284.8125,357.65625 L 276.5625,357.65625 L 272.4375,361.34375 L 266.46875,362.25 L 262.78125,357.65625 L 260.9375,350.78125 L 260.0625,349.46875 L 259.5625,349.40625 L 255.90625,351.21875 L 251.78125,359.03125 L 243.5,360.875 L 234.8125,362.25 L 228.375,355.8125 L 220.5625,352.625 L 215.96875,346.65625 L 220.125,341.125 L 216.25,338.5625 z M 332.34375,447.75 C 333.61043,447.69343 335.17204,449.02246 336.09375,449.8125 C 337.26186,450.81373 337.92688,453.32127 338.09375,454.65625 C 338.26063,455.99123 338.41749,457.65438 337.75,459.15625 C 337.08251,460.6581 335.92811,460.8325 335.09375,461.5 C 335.08071,461.51043 335.04566,461.52139 335.03125,461.53125 C 335.0011,461.55041 334.9416,461.57681 334.90625,461.59375 C 333.80809,462.08569 330.43983,461.59473 328.5625,460.8125 C 326.56003,459.97814 327.23999,458.13934 326.90625,454.96875 L 327.40625,453.15625 C 327.40625,453.15625 330.07127,449.29311 331.40625,448.125 C 331.68785,447.8786 332.00513,447.76512 332.34375,447.75 z "
       style="fill:#ffdde1;fill-opacity:1;fill-rule:evenodd;stroke:#000000;stroke-width:1px;stroke-linecap:butt;stroke-linejoin:miter;stroke-opacity:1"
       id="path1809" />
    <path
       d="M 472.5,387.93034 L 465.59375,390.24284 L 454.59375,400.33659 L 444.9375,403.99284 L 437.15625,401.71159 L 431.65625,404.46159 L 426.59375,401.71159 L 412.375,401.24284 L 401.8125,402.61784 L 395.84375,406.27409 L 388.0625,420.05534 L 382.09375,425.08659 L 372.90625,426.93034 L 363.03125,427.68034 L 362.34375,428.30534 L 360.96875,434.74284 L 360.53125,442.99284 L 358.6875,447.11784 L 359.15625,453.55534 L 358.75,454.71159 C 358.9641,454.81814 359.15625,454.93034 359.15625,454.93034 C 359.15626,454.93035 366.47708,457.68866 368.3125,459.52409 C 370.14792,461.35952 376.12343,474.65741 377.5,476.49284 C 378.87656,478.32826 385.3125,483.3647 385.3125,486.11784 C 385.3125,488.87096 382.53957,490.71992 384.375,492.55534 C 386.21041,494.39078 386.6875,498.52409 386.6875,498.52409 C 386.68751,498.52408 384.375,509.06367 384.375,510.89909 C 384.37499,512.73453 386.20572,516.40898 388.5,516.86784 C 390.79427,517.32669 394.9375,515.49284 394.9375,515.49284 L 399.53125,508.61784 C 399.53125,508.61783 401.61428,508.48735 405.10841,508.54068 C 410.26716,508.61942 413.28125,511.36784 413.28125,511.36784 L 416.03125,524.68034 C 416.03126,524.68034 421.39486,530.46846 423.75,530.64909 C 423.77775,530.65071 423.81686,530.64909 423.84375,530.64909 C 426.13802,530.64907 433.03125,532.02409 433.03125,532.02409 C 433.03126,532.02411 439.91301,531.10481 443.125,533.39909 C 446.33701,535.69337 448.625,541.64909 448.625,541.64909 C 448.625,541.64909 453.22708,544.39077 455.0625,542.55534 C 456.89792,540.71991 475.68437,522.83659 478.4375,522.83659 C 481.19064,522.83656 484.87187,524.21316 487.625,522.83659 C 490.37815,521.45999 494.50833,520.54701 496.34375,518.71159 C 498.17919,516.87614 505.96875,511.36784 505.96875,511.36784 L 508.71875,510.89909 L 505.96875,501.74284 L 509.1875,495.77409 L 507.8125,484.30534 L 509.65625,477.86784 L 506.4375,469.14909 L 505.53125,463.18034 L 514.6875,453.55534 L 520.65625,445.30534 L 527.5625,432.89909 L 533.0625,430.61784 C 533.06251,430.61783 530.77292,417.30847 528.9375,414.55534 C 527.10207,411.80221 524.78595,408.58973 520.65625,405.83659 C 516.52654,403.08347 504.14949,399.86784 500.9375,399.86784 C 497.72552,399.86785 489.01303,402.16056 486.71875,401.24284 C 484.42447,400.32514 482.11511,399.39076 481.65625,397.55534 C 481.35049,396.33225 481.63712,394.10259 481.875,392.74284 C 481.75808,392.88189 481.6875,392.96159 481.6875,392.96159 L 472.5,387.93034 z "
       style="fill:#faecd6;fill-opacity:1;fill-rule:evenodd;stroke:#000000;stroke-width:1px;stroke-linecap:butt;stroke-linejoin:miter;stroke-opacity:1"
       id="path1819" />
    <path
       d="M 244.4375,312.21159 L 236.625,315.89909 L 230.65625,320.49284 L 225.625,318.18034 L 220.5625,321.86784 L 210.9375,318.18034 L 210.5625,317.93034 L 211,319.36784 L 209.6875,323.96159 L 209.03125,324.08659 L 213.625,329.18034 L 216.875,337.68034 L 216.25,338.55534 L 220.125,341.11784 L 215.96875,346.64909 L 220.5625,352.61784 L 228.375,355.80534 L 234.8125,362.24284 L 243.5,360.86784 L 251.78125,359.02409 L 255.90625,351.21159 L 259.5625,349.39909 L 260.0625,349.46159 L 260.03125,349.39909 L 266.46875,346.18034 L 263.71875,340.68034 L 252.21875,343.89909 L 249.46875,342.96159 L 247.1875,339.30534 L 259.5625,331.96159 L 256.8125,321.39909 L 252.21875,320.02409 L 244.4375,312.21159 z "
       style="fill:#CF8BF3;fill-opacity:1;fill-rule:evenodd;stroke:#000000;stroke-width:1px;stroke-linecap:butt;stroke-linejoin:miter;stroke-opacity:1"
       id="path1836" />
    <text
       x="126.91621"
       y="289.43701"
       style="font-size:16px;font-style:normal;font-variant:normal;font-weight:normal;font-stretch:normal;text-align:start;line-height:125%;writing-mode:lr-tb;text-anchor:start;fill:#000000;fill-opacity:1;stroke:none;stroke-width:1px;stroke-linecap:butt;stroke-linejoin:miter;stroke-opacity:1;font-family:Verdana"
       id="text1848"
       xml:space="preserve"><tspan
         x="126.91621"
         y="289.43701"
         id="tspan1850">1</tspan></text>
    <text
       x="270.7757"
       y="411.74753"
       style="font-size:16px;font-style:normal;font-variant:normal;font-weight:normal;font-stretch:normal;text-align:start;line-height:125%;writing-mode:lr-tb;text-anchor:start;fill:#000000;fill-opacity:1;stroke:none;stroke-width:1px;stroke-linecap:butt;stroke-linejoin:miter;stroke-opacity:1;font-family:Verdana"
       id="text1852"
       xml:space="preserve"><tspan
         x="270.7757"
         y="411.74753"
         id="tspan1854">2</tspan></text>
    <text
       x="110.07422"
       y="371.73001"
       style="font-size:16px;font-style:normal;font-variant:normal;font-weight:normal;font-stretch:normal;text-align:start;line-height:125%;writing-mode:lr-tb;text-anchor:start;fill:#000000;fill-opacity:1;stroke:none;stroke-width:1px;stroke-linecap:butt;stroke-linejoin:miter;stroke-opacity:1;font-family:Verdana"
       id="text1856"
       xml:space="preserve">
       <tspan
         x="110.07422"
         y="371.73001"
         id="tspan1858"></tspan></text>
    <text
       x="371.2207"
       y="347.42728"
       style="font-size:16px;font-style:normal;font-variant:normal;font-weight:normal;font-stretch:normal;text-align:start;line-height:125%;writing-mode:lr-tb;text-anchor:start;fill:#000000;fill-opacity:1;stroke:none;stroke-width:1px;stroke-linecap:butt;stroke-linejoin:miter;stroke-opacity:1;font-family:Verdana"
       id="text1860"
       xml:space="preserve"><tspan
         x="371.2207"
         y="307.42728"
         id="tspan1862">4</tspan></text>
    <text
       x="260.5625"
       y="280.42728"
       style="font-size:40px;font-style:normal;font-variant:normal;font-weight:normal;font-stretch:normal;text-align:start;line-height:125%;writing-mode:lr-tb;text-anchor:start;fill:#000000;fill-opacity:1;stroke:none;stroke-width:1px;stroke-linecap:butt;stroke-linejoin:miter;stroke-opacity:1;font-family:Verdana"
       id="text1864"
       xml:space="preserve"><tspan
         x="260.5625"
         y="280.42728"
         id="tspan1866">5</tspan></text>
    <text
       x="208.9375"
       y="106.12455"
       style="font-size:16px;font-style:normal;font-variant:normal;font-weight:normal;font-stretch:normal;text-align:start;line-height:125%;writing-mode:lr-tb;text-anchor:start;fill:#000000;fill-opacity:1;stroke:none;stroke-width:1px;stroke-linecap:butt;stroke-linejoin:miter;stroke-opacity:1;font-family:Verdana"
       id="text1868"
       xml:space="preserve"><tspan
         x="208.9375"
         y="106.12455"
         id="tspan1870">6</tspan></text>
    <text
       x="79.09375"
       y="145.39799"
       style="font-size:16px;font-style:normal;font-variant:normal;font-weight:normal;font-stretch:normal;text-align:start;line-height:125%;writing-mode:lr-tb;text-anchor:start;fill:#000000;fill-opacity:1;stroke:none;stroke-width:1px;stroke-linecap:butt;stroke-linejoin:miter;stroke-opacity:1;font-family:Verdana"
       id="text1872"
       xml:space="preserve"><tspan
         x="79.09375"
         y="145.39799"
         id="tspan1874">7</tspan></text>
    <path
       d="M 532.84375,429.36784 C 532.98665,430.14634 533.0625,430.61784 533.0625,430.61784 L 530.15625,431.83659 L 524.5,438.36784 L 520.65625,445.30534 L 514.6875,453.55534 L 505.53125,463.18034 L 506.4375,469.14909 L 509.65625,477.86784 L 507.8125,484.30534 L 509.1875,495.77409 L 505.96875,501.74284 L 508.625,510.64909 L 508.65625,510.64909 C 508.96745,510.71015 509.14486,510.713 509.21875,510.71159 C 509.23051,510.71102 509.25,510.71159 509.25,510.71159 C 509.24997,510.71161 528.72415,515.91182 531.96875,519.80534 C 535.21336,523.69886 537.15625,525.64716 537.15625,528.24284 C 537.15628,530.83851 534.56983,542.52949 535.21875,545.77409 C 535.86765,549.0187 540.40625,554.83659 540.40625,554.83659 L 531.96875,564.58659 L 531.96875,570.43034 C 531.96876,570.43032 526.78665,572.37324 530.03125,575.61784 C 533.27588,578.86243 537.8125,583.39909 537.8125,583.39909 L 547.53125,584.05534 C 547.53125,584.05537 563.09915,596.37517 566.34375,597.02409 C 569.58835,597.67298 578.69483,602.22432 579.34375,606.11784 C 579.99268,610.01137 577.375,615.18574 577.375,618.43034 C 577.37503,621.67497 574.78858,624.92841 575.4375,627.52409 C 576.0864,630.11978 581.9375,641.80534 581.9375,641.80534 C 581.93748,641.80534 585.81983,643.08466 586.46875,645.68034 C 587.11768,648.27605 586.46875,650.89909 586.46875,650.89909 C 586.46876,650.89907 587.12307,656.07733 589.71875,658.02409 C 592.31441,659.97083 598.14892,663.86591 597.5,666.46159 C 596.85111,669.05729 600.75,677.49284 600.75,677.49284 C 600.75,677.49282 607.23534,685.92841 605.9375,688.52409 C 604.63968,691.11977 602.6875,695.64909 602.6875,695.64909 L 609.1875,715.77409 L 612.4375,737.83659 C 612.43752,737.83658 622.8179,738.48551 626.0625,737.83659 C 629.30712,737.18766 642.28125,728.11784 642.28125,728.11784 C 642.28125,728.11786 652.67631,720.95426 657.21875,720.30534 C 661.76117,719.65644 670.82523,720.33466 674.71875,722.93034 C 678.36893,725.36379 679.74941,726.06829 679.90625,726.14909 C 679.90627,726.14906 684.46682,724.87517 687.0625,725.52409 C 689.65819,726.17299 694.84182,730.04801 697.4375,729.39909 C 699.87093,728.79073 700.6067,727.60655 700.6875,727.46159 L 700.03125,717.71159 C 700.03127,717.71158 692.25733,707.33852 692.90625,704.74284 C 693.55519,702.14714 701.34375,680.08852 701.34375,677.49284 C 701.34376,674.89714 697.4375,672.96159 697.4375,672.96159 L 702.625,667.11784 L 682.5,641.80534 L 674.0625,635.96159 L 677.96875,631.43034 C 677.96872,631.43031 685.74807,633.36051 688.34375,632.71159 C 690.93943,632.06269 694.1875,632.71159 694.1875,632.71159 L 700.6875,637.24284 L 711.0625,631.43034 L 716.25,623.61784 L 720.15625,622.33659 L 717.5625,619.08659 L 710.40625,617.14909 L 707.8125,611.96159 C 707.81251,611.96161 702.61767,609.99477 701.96875,607.39909 C 701.31983,604.80341 698.09568,592.47085 695.5,590.52409 C 692.90432,588.5773 685.09375,583.39909 685.09375,583.39909 C 685.09372,583.39906 679.28318,584.05727 676.6875,581.46159 C 674.09181,578.86591 666.94483,571.07386 667.59375,567.18034 C 668.24268,563.28683 674.0625,556.80534 674.0625,556.80534 C 674.06251,556.80532 683.81057,552.89176 686.40625,552.24284 C 689.00195,551.59394 693.55324,547.05727 695.5,544.46159 C 697.44676,541.86593 702.625,541.86784 702.625,541.86784 L 702.625,536.68034 L 701.34375,534.74284 L 710.40625,526.30534 L 704.5625,515.89909 L 701.34375,513.30534 C 701.34376,513.30534 683.81443,520.4396 681.21875,518.49284 C 678.62308,516.54609 676.03125,512.02409 676.03125,512.02409 L 677.3125,504.86784 L 671.46875,506.83659 L 665.65625,498.39909 L 616.96875,514.61784 C 616.96873,514.61783 610.47068,502.29261 607.875,498.39909 C 605.27932,494.50558 591.66551,483.46352 589.71875,480.86784 C 587.77197,478.27215 581.9375,463.99284 581.9375,463.99284 C 581.93748,463.99283 576.72994,454.89909 572.1875,454.89909 C 567.64507,454.8991 559.21875,453.61784 559.21875,453.61784 L 542.34375,445.18034 L 532.84375,429.36784 z "
       style="fill:#78ffd6;fill-opacity:1;fill-rule:evenodd;stroke:#000000;stroke-width:1px;stroke-linecap:butt;stroke-linejoin:miter;stroke-opacity:1"
       id="path1827" />
    <text
       x="598.10352"
       y="582.42731"
       style="font-size:16px;font-style:normal;font-variant:normal;font-weight:normal;font-stretch:normal;text-align:start;line-height:125%;writing-mode:lr-tb;text-anchor:start;fill:#000000;fill-opacity:1;stroke:none;stroke-width:1px;stroke-linecap:butt;stroke-linejoin:miter;stroke-opacity:1;font-family:Verdana"
       id="text1876"
       xml:space="preserve"><tspan
         x="598.10352"
         y="582.42731"
         id="tspan1878">8</tspan></text>
    <text
       x="365.34766"
       y="139.42729"
       style="font-size:16px;font-style:normal;font-variant:normal;font-weight:normal;font-stretch:normal;text-align:start;line-height:125%;writing-mode:lr-tb;text-anchor:start;fill:#000000;fill-opacity:1;stroke:none;stroke-width:1px;stroke-linecap:butt;stroke-linejoin:miter;stroke-opacity:1;font-family:Verdana"
       id="text1880"
       xml:space="preserve"><tspan
         x="365.34766"
         y="139.42729"
         id="tspan1882">9</tspan></text>
    <text
       x="420.5625"
       y="473.43704"
       style="font-size:16px;font-style:normal;font-variant:normal;font-weight:normal;font-stretch:normal;text-align:start;line-height:125%;writing-mode:lr-tb;text-anchor:start;fill:#000000;fill-opacity:1;stroke:none;stroke-width:1px;stroke-linecap:butt;stroke-linejoin:miter;stroke-opacity:1;font-family:Verdana"
       id="text1884"
       xml:space="preserve"><tspan
         x="420.5625"
         y="473.43704"
         id="tspan1886">10</tspan></text>
    <text
       x="149.2168"
       y="429.41751"
       style="font-size:16px;font-style:normal;font-variant:normal;font-weight:normal;font-stretch:normal;text-align:start;line-height:125%;writing-mode:lr-tb;text-anchor:start;fill:#000000;fill-opacity:1;stroke:none;stroke-width:1px;stroke-linecap:butt;stroke-linejoin:miter;stroke-opacity:1;font-family:Verdana"
       id="text1888"
       xml:space="preserve"><tspan
         x="149.2168"
         y="429.41751"
         id="tspan1890">11</tspan></text>
    <text
       x="494.5625"
       y="236.42729"
       style="font-size:16px;font-style:normal;font-variant:normal;font-weight:normal;font-stretch:normal;text-align:start;line-height:125%;writing-mode:lr-tb;text-anchor:start;fill:#000000;fill-opacity:1;stroke:none;stroke-width:1px;stroke-linecap:butt;stroke-linejoin:miter;stroke-opacity:1;font-family:Verdana"
       id="text1892"
       xml:space="preserve"><tspan
         x="494.5625"
         y="236.42729"
         id="tspan1894">4</tspan></text>
    <path
       d="M 181.15552,396.35139 L 230.96948,342.97929"
       style="fill:none;fill-opacity:0.75;fill-rule:evenodd;stroke:#000000;stroke-width:1.18604648px;stroke-linecap:butt;stroke-linejoin:miter;stroke-opacity:1"
       id="path1896" />
    <path
       d="M 498.15625,215.98002 L 477.03125,203.79252"
       style="fill:none;fill-opacity:0.75;fill-rule:evenodd;stroke:#000000;stroke-width:0.8125px;stroke-linecap:butt;stroke-linejoin:miter;stroke-opacity:1"
       id="path1898" />
  </g>
  <g
     id="layer2" />
</svg>
